<?xml version="1.0" encoding="utf-8"?>
<svg style="isolation:isolate" width="256" height="256" viewBox="0 0 256 256" xmlns="http://www.w3.org/2000/svg">
  <defs>
    <filter id="5rj1cSIMCPhclbZGiUqIyHDm8TvNtbeL" width="400%" height="400%" x="-200%" y="-200%" color-interpolation-filters="sRGB" filterUnits="objectBoundingBox">
      <feGaussianBlur xmlns="http://www.w3.org/2000/svg" in="SourceGraphic" stdDeviation="4.294"/>
      <feOffset xmlns="http://www.w3.org/2000/svg" dx="0" dy="4" result="pf_100_offsetBlur"/>
      <feFlood xmlns="http://www.w3.org/2000/svg" flood-opacity=".4"/>
      <feComposite xmlns="http://www.w3.org/2000/svg" in2="pf_100_offsetBlur" operator="in" result="pf_100_dropShadow"/>
      <feBlend xmlns="http://www.w3.org/2000/svg" in="SourceGraphic" in2="pf_100_dropShadow" mode="normal"/>
    </filter>
  </defs>
  <g filter="url(#5rj1cSIMCPhclbZGiUqIyHDm8TvNtbeL)">
    <linearGradient id="_lgradient_63" x1="0" x2="0" y1="0" y2="1" gradientTransform="matrix(244.648,0,0,228.338,5.68,11.95)" gradientUnits="userSpaceOnUse">
      <stop offset="0" style="stop-color:#4c5561"/>
      <stop offset="1" style="stop-color:#2e3842"/>
    </linearGradient>
    <path fill="url(#_lgradient_63)" d="M 165.689 11.95 C 239.745 11.95 250.328 22.507 250.328 96.494 L 250.328 155.745 C 250.328 229.731 239.745 240.288 165.689 240.288 L 90.319 240.288 C 16.264 240.288 5.68 229.731 5.68 155.745 L 5.68 96.494 C 5.68 22.507 16.264 11.95 90.319 11.95 L 165.689 11.95 Z"/>
  </g>
  <g opacity=".4">
    <linearGradient id="_lgradient_64" x1=".517" x2=".517" y1="0" y2="1" gradientTransform="matrix(244.65,0,0,228.34,5.68,11.95)" gradientUnits="userSpaceOnUse">
      <stop offset="0" style="stop-color:#ffffff"/>
      <stop offset="0.125" stop-opacity=".098" style="stop-color:#ffffff"/>
      <stop offset="0.925" stop-opacity=".098" style="stop-color:#000000"/>
      <stop offset="1" stop-opacity=".498" style="stop-color:#000000"/>
    </linearGradient>
    <path fill="url(#_lgradient_64)" fill-rule="evenodd" d="M 165.068 11.951 C 169.396 11.941 173.724 11.991 178.052 12.089 C 181.927 12.167 185.803 12.315 189.678 12.541 C 193.131 12.737 196.583 13.022 200.026 13.395 C 203.085 13.73 206.144 14.181 209.174 14.741 C 211.889 15.243 214.574 15.881 217.22 16.657 C 219.62 17.355 221.971 18.219 224.243 19.241 C 226.358 20.184 228.384 21.304 230.302 22.591 C 232.142 23.829 233.863 25.244 235.437 26.806 C 237.001 28.378 238.417 30.088 239.656 31.925 C 240.945 33.841 242.066 35.865 243.02 37.967 C 244.043 40.247 244.909 42.585 245.617 44.972 C 246.394 47.615 247.034 50.297 247.535 53.009 C 248.096 56.035 248.548 59.081 248.883 62.136 C 249.257 65.575 249.542 69.014 249.739 72.462 C 249.965 76.323 250.112 80.194 250.201 84.055 C 250.289 88.378 250.339 92.701 250.329 97.014 L 250.329 155.226 C 250.339 159.549 250.289 163.862 250.201 168.185 C 250.112 172.056 249.965 175.917 249.739 179.778 C 249.542 183.226 249.257 186.675 248.883 190.104 C 248.548 193.159 248.096 196.215 247.535 199.241 C 247.034 201.943 246.394 204.625 245.617 207.268 C 244.909 209.655 244.043 212.003 243.02 214.273 C 242.066 216.385 240.945 218.399 239.656 220.315 C 238.417 222.152 237.001 223.872 235.437 225.434 C 233.863 226.996 232.142 228.411 230.302 229.649 C 228.384 230.936 226.358 232.056 224.243 232.999 C 221.971 234.021 219.62 234.885 217.22 235.593 C 214.574 236.369 211.889 237.007 209.174 237.499 C 206.144 238.068 203.085 238.51 200.026 238.845 C 196.583 239.218 193.131 239.503 189.678 239.699 C 185.803 239.925 181.927 240.073 178.052 240.161 C 173.724 240.249 169.396 240.299 165.068 240.289 L 90.942 240.289 C 86.614 240.299 82.286 240.249 77.958 240.161 C 74.083 240.073 70.207 239.925 66.332 239.699 C 62.879 239.503 59.427 239.218 55.984 238.845 C 52.925 238.51 49.866 238.068 46.836 237.499 C 44.121 237.007 41.436 236.369 38.79 235.593 C 36.39 234.885 34.039 234.021 31.767 232.999 C 29.652 232.056 27.626 230.936 25.708 229.649 C 23.868 228.411 22.147 226.996 20.573 225.434 C 19.009 223.872 17.593 222.152 16.354 220.315 C 15.065 218.399 13.944 216.385 12.99 214.273 C 11.967 212.003 11.101 209.655 10.393 207.268 C 9.616 204.625 8.976 201.943 8.475 199.241 C 7.914 196.215 7.462 193.159 7.127 190.104 C 6.753 186.675 6.468 183.226 6.271 179.778 C 6.045 175.917 5.898 172.056 5.809 168.185 C 5.721 163.862 5.671 159.549 5.681 155.226 L 5.681 97.014 C 5.671 92.701 5.721 88.378 5.809 84.055 C 5.898 80.194 6.045 76.323 6.271 72.462 C 6.468 69.014 6.753 65.575 7.127 62.136 C 7.462 59.081 7.914 56.035 8.475 53.009 C 8.976 50.297 9.616 47.615 10.393 44.972 C 11.101 42.585 11.967 40.247 12.99 37.967 C 13.944 35.865 15.065 33.841 16.354 31.925 C 17.593 30.088 19.009 28.378 20.573 26.806 C 22.147 25.244 23.868 23.829 25.708 22.591 C 27.626 21.304 29.652 20.184 31.767 19.241 C 34.039 18.219 36.39 17.355 38.79 16.657 C 41.436 15.881 44.121 15.243 46.836 14.741 C 49.866 14.181 52.925 13.73 55.984 13.395 C 59.427 13.022 62.879 12.737 66.332 12.541 C 70.207 12.315 74.083 12.167 77.958 12.089 C 82.286 11.991 86.614 11.941 90.942 11.951 L 165.068 11.951 Z M 165.078 15.96 C 169.376 15.95 173.675 15.999 177.973 16.087 C 181.8 16.176 185.626 16.323 189.452 16.539 C 192.836 16.736 196.219 17.011 199.583 17.384 C 202.554 17.699 205.515 18.131 208.446 18.681 C 211.023 19.153 213.58 19.762 216.099 20.499 C 218.322 21.147 220.495 21.953 222.6 22.896 C 224.509 23.751 226.338 24.763 228.069 25.922 C 229.692 27.013 231.207 28.26 232.594 29.646 C 233.981 31.031 235.23 32.544 236.332 34.165 C 237.492 35.894 238.506 37.712 239.361 39.608 C 240.306 41.72 241.112 43.892 241.761 46.102 C 242.509 48.617 243.109 51.162 243.591 53.736 C 244.132 56.664 244.565 59.611 244.889 62.578 C 245.263 65.938 245.539 69.308 245.735 72.688 C 245.952 76.51 246.109 80.322 246.188 84.144 C 246.276 88.437 246.325 92.721 246.325 97.014 C 246.325 97.014 246.325 97.014 246.325 97.014 L 246.325 155.226 C 246.325 155.226 246.325 155.226 246.325 155.226 C 246.325 159.519 246.276 163.803 246.188 168.096 C 246.109 171.918 245.952 175.74 245.735 179.552 C 245.539 182.932 245.263 186.302 244.889 189.672 C 244.565 192.629 244.132 195.576 243.591 198.504 C 243.109 201.078 242.509 203.623 241.761 206.138 C 241.112 208.358 240.306 210.52 239.361 212.632 C 238.506 214.528 237.492 216.356 236.332 218.075 C 235.23 219.706 233.981 221.219 232.594 222.604 C 231.207 223.98 229.692 225.227 228.069 226.318 C 226.338 227.477 224.509 228.489 222.6 229.344 C 220.495 230.297 218.322 231.093 216.099 231.741 C 213.58 232.478 211.023 233.087 208.446 233.559 C 205.515 234.109 202.554 234.541 199.583 234.865 C 196.219 235.229 192.836 235.514 189.452 235.701 C 185.626 235.917 181.8 236.074 177.973 236.153 C 173.675 236.251 169.376 236.29 165.078 236.29 C 165.078 236.29 165.078 236.29 165.068 236.29 L 90.942 236.29 C 90.932 236.29 90.932 236.29 90.932 236.29 C 86.634 236.29 82.335 236.251 78.037 236.153 C 74.21 236.074 70.384 235.917 66.558 235.701 C 63.174 235.514 59.791 235.229 56.427 234.865 C 53.456 234.541 50.495 234.109 47.564 233.559 C 44.987 233.087 42.43 232.478 39.911 231.741 C 37.688 231.093 35.515 230.297 33.41 229.344 C 31.501 228.489 29.672 227.477 27.941 226.318 C 26.318 225.227 24.803 223.98 23.416 222.604 C 22.029 221.219 20.78 219.706 19.678 218.075 C 18.518 216.356 17.504 214.528 16.649 212.632 C 15.704 210.52 14.898 208.358 14.249 206.138 C 13.501 203.623 12.901 201.078 12.419 198.504 C 11.878 195.576 11.445 192.629 11.121 189.672 C 10.747 186.302 10.472 182.932 10.275 179.552 C 10.058 175.74 9.901 171.918 9.822 168.096 C 9.734 163.803 9.685 159.519 9.685 155.226 C 9.685 155.226 9.685 155.226 9.685 155.226 L 9.685 97.014 C 9.685 97.014 9.685 97.014 9.685 97.014 C 9.685 92.721 9.734 88.437 9.822 84.144 C 9.901 80.322 10.058 76.51 10.275 72.688 C 10.472 69.308 10.747 65.938 11.121 62.578 C 11.445 59.611 11.878 56.664 12.419 53.736 C 12.901 51.162 13.501 48.617 14.249 46.102 C 14.898 43.892 15.704 41.72 16.649 39.608 C 17.504 37.712 18.518 35.894 19.678 34.165 C 20.78 32.544 22.029 31.031 23.416 29.646 C 24.803 28.26 26.318 27.013 27.941 25.922 C 29.672 24.763 31.501 23.751 33.41 22.896 C 35.515 21.953 37.688 21.147 39.911 20.499 C 42.43 19.762 44.987 19.153 47.564 18.681 C 50.495 18.131 53.456 17.699 56.427 17.384 C 59.791 17.011 63.174 16.736 66.558 16.539 C 70.384 16.323 74.21 16.176 78.037 16.087 C 82.335 15.999 86.634 15.95 90.932 15.96 C 90.932 15.96 90.932 15.96 90.942 15.96 L 165.068 15.96 C 165.078 15.96 165.078 15.96 165.078 15.96 Z"/>
  </g>
  <g transform="matrix(0.909771, 0, 0, 0.927318, 6.267241, -10.256948)" style="">
    <g transform="matrix(0.686709, 0, 0, 0.708841, 46.250534, 56.920918)" style="">
      <path style="opacity:0.008" fill="#ff84fd" d="M 142.5,35.5 C 144.966,34.3659 147.633,34.1993 150.5,35C 147.854,35.4974 145.187,35.6641 142.5,35.5 Z"/>
    </g>
    <g transform="matrix(0.686709, 0, 0, 0.708841, 46.250534, 56.920918)" style="">
      <path style="opacity:0.012" fill="#ff5cff" d="M 132.5,36.5 C 135.304,35.3622 138.304,35.1955 141.5,36C 138.518,36.498 135.518,36.6646 132.5,36.5 Z"/>
    </g>
    <g transform="matrix(0.686709, 0, 0, 0.708841, 46.250534, 56.920918)" style="">
      <path style="opacity:0.008" fill="#ff60ff" d="M 132.5,36.5 C 129.696,37.6378 126.696,37.8045 123.5,37C 126.482,36.502 129.482,36.3354 132.5,36.5 Z"/>
    </g>
    <g transform="matrix(0.686709, 0, 0, 0.708841, 46.250534, 56.920918)" style="">
      <path style="opacity:0.008" fill="#ff87fd" d="M 113.5,38.5 C 116.304,37.3622 119.304,37.1955 122.5,38C 119.518,38.498 116.518,38.6646 113.5,38.5 Z"/>
    </g>
    <g transform="matrix(0.686709, 0, 0, 0.708841, 46.250534, 56.920918)" style="">
      <path style="opacity:0.923" fill="#ff6a0d" d="M 148.5,36.5 C 146.603,39.947 144.437,43.2804 142,46.5C 140.989,47.3366 139.822,47.67 138.5,47.5C 130.253,45.9727 122.253,43.6393 114.5,40.5C 125.648,38.7828 136.981,37.4494 148.5,36.5 Z"/>
    </g>
    <g transform="matrix(0.686709, 0, 0, 0.708841, 46.250534, 56.920918)" style="">
      <path style="opacity:0.016" fill="#ff8bfe" d="M 103.5,39.5 C 106.625,38.5206 109.958,38.1872 113.5,38.5C 110.375,39.4794 107.042,39.8128 103.5,39.5 Z"/>
    </g>
    <g transform="matrix(0.686709, 0, 0, 0.708841, 46.250534, 56.920918)" style="">
      <path style="opacity:0.013" fill="#ff70ff" d="M 103.5,39.5 C 102.399,40.5983 101.066,40.765 99.5,40C 100.793,39.51 102.127,39.3433 103.5,39.5 Z"/>
    </g>
    <g transform="matrix(0.686709, 0, 0, 0.708841, 46.250534, 56.920918)" style="">
      <path style="opacity:0.999" fill="#ff8719" d="M 114.5,40.5 C 122.253,43.6393 130.253,45.9727 138.5,47.5C 137.081,48.4511 135.415,48.7845 133.5,48.5C 124.56,49.8767 115.56,50.5433 106.5,50.5C 106.5,49.8333 106.167,49.5 105.5,49.5C 105.5,48.8333 105.167,48.5 104.5,48.5C 102.721,46.4535 101.054,44.2869 99.5,42C 104.434,40.8399 109.434,40.3399 114.5,40.5 Z"/>
    </g>
    <g transform="matrix(0.686709, 0, 0, 0.708841, 46.250534, 56.920918)" style="">
      <path style="opacity:0.999" fill="#ffd235" d="M 148.5,36.5 C 165.676,46.9196 182.676,57.5863 199.5,68.5C 196.426,68.1274 193.426,67.4608 190.5,66.5C 177.02,61.3362 163.353,56.3362 149.5,51.5C 148.808,52.0253 148.308,52.6919 148,53.5C 147,53.1667 146,52.8333 145,52.5C 144.536,53.0944 144.369,53.7611 144.5,54.5C 143.356,52.8998 142.189,51.2331 141,49.5C 140.809,51.7078 140.309,53.7078 139.5,55.5C 139.662,53.4727 139.495,51.4727 139,49.5C 133.346,66.1442 126.346,82.1442 118,97.5C 116.736,99.607 114.903,100.607 112.5,100.5C 112.649,101.552 112.483,102.552 112,103.5C 111.667,103.167 111.333,102.833 111,102.5C 110.546,105.612 108.713,107.278 105.5,107.5C 103.131,105.058 100.297,105.058 97,107.5C 96.6121,106.572 95.9454,105.905 95,105.5C 91.9442,104.923 88.9442,104.257 86,103.5C 84.2087,105.513 82.8753,105.513 82,103.5C 81,103.833 80,104.167 79,104.5C 77.9326,103.809 76.7659,103.309 75.5,103C 79.0845,99.9219 82.0845,96.4219 84.5,92.5C 85.8333,91.5 87.1667,90.5 88.5,89.5C 91.2154,91.6146 94.0488,92.9479 97,93.5C 97.3879,92.572 98.0546,91.9054 99,91.5C 100.011,91.8919 100.511,92.5585 100.5,93.5C 102.278,93.4307 104.111,93.0974 106,92.5C 106.667,93.1667 107.333,93.8333 108,94.5C 108.979,92.6797 110.479,91.513 112.5,91C 112.167,90.6667 111.833,90.3333 111.5,90C 112.448,89.5172 113.448,89.3505 114.5,89.5C 114.351,88.448 114.517,87.448 115,86.5C 115.914,87.6537 116.747,87.487 117.5,86C 116.549,85.2825 116.383,84.4491 117,83.5C 119.179,81.6518 121.013,79.4852 122.5,77C 121.655,75.4419 122.321,74.4419 124.5,74C 124.043,73.586 123.709,73.086 123.5,72.5C 126.207,68.4215 128.207,64.4215 129.5,60.5C 130.024,58.5469 131.024,56.8802 132.5,55.5C 132.043,54.7025 131.376,54.3691 130.5,54.5C 129.324,51.5169 130.324,49.5169 133.5,48.5C 135.415,48.7845 137.081,48.4511 138.5,47.5C 139.822,47.67 140.989,47.3366 142,46.5C 144.437,43.2804 146.603,39.947 148.5,36.5 Z"/>
    </g>
    <g transform="matrix(0.686709, 0, 0, 0.708841, 46.250534, 56.920918)" style="">
      <path style="opacity:0.016" fill="#ffca24" d="M 85.5,51.5 C 88.3035,50.3622 91.3035,50.1955 94.5,51C 91.5184,51.498 88.5184,51.6646 85.5,51.5 Z"/>
    </g>
    <g transform="matrix(0.686709, 0, 0, 0.708841, 46.250534, 56.920918)" style="">
      <path style="opacity:0.004" fill="#fe0000" d="M 85.5,51.5 C 84.8333,52.1667 84.8333,52.1667 85.5,51.5 Z"/>
    </g>
    <g transform="matrix(0.686709, 0, 0, 0.708841, 46.250534, 56.920918)" style="">
      <path style="opacity:0.987" fill="#ffc327" d="M 104.5,48.5 C 105.167,48.5 105.5,48.8333 105.5,49.5C 106.167,49.5 106.5,49.8333 106.5,50.5C 115.56,50.5433 124.56,49.8767 133.5,48.5C 130.324,49.5169 129.324,51.5169 130.5,54.5C 122.024,61.2413 113.024,67.2413 103.5,72.5C 97.1407,66.4749 91.1407,60.1416 85.5,53.5C 91.7498,52.4157 98.0831,51.5823 104.5,51C 92.6415,50.4793 92.6415,49.6459 104.5,48.5 Z"/>
    </g>
    <g transform="matrix(0.686709, 0, 0, 0.708841, 46.250534, 56.920918)" style="">
      <path style="opacity:0.999" fill="#feca2f" d="M 139.5,55.5 C 139.81,58.7131 139.477,61.7131 138.5,64.5C 136.792,70.9802 134.458,77.3135 131.5,83.5C 132.902,84.8425 132.569,85.6758 130.5,86C 130.833,86.3333 131.167,86.6667 131.5,87C 128.878,88.9131 127.878,91.2465 128.5,94C 125.513,98.296 122.513,102.629 119.5,107C 118.461,110.126 116.294,112.959 113,115.5C 112.833,118.333 111.333,119.833 108.5,120C 109.696,120.654 109.696,121.154 108.5,121.5C 107.459,119.009 106.626,119.009 106,121.5C 100.338,121.156 94.5042,120.822 88.5,120.5C 86.7721,118.774 84.7721,117.441 82.5,116.5C 79.8103,113.815 76.8103,111.482 73.5,109.5C 71.1677,106.852 71.1677,104.019 73.5,101C 73.2716,100.601 72.9382,100.435 72.5,100.5C 72.5,100.167 72.5,99.8333 72.5,99.5C 73.8333,95.5 75.1667,91.5 76.5,87.5C 77.2216,87.0825 77.7216,86.4158 78,85.5C 79.716,88.3782 81.8827,90.7115 84.5,92.5C 82.0845,96.4219 79.0845,99.9219 75.5,103C 76.7659,103.309 77.9326,103.809 79,104.5C 80,104.167 81,103.833 82,103.5C 82.8753,105.513 84.2087,105.513 86,103.5C 88.9442,104.257 91.9442,104.923 95,105.5C 95.9454,105.905 96.6121,106.572 97,107.5C 100.297,105.058 103.131,105.058 105.5,107.5C 108.713,107.278 110.546,105.612 111,102.5C 111.333,102.833 111.667,103.167 112,103.5C 112.483,102.552 112.649,101.552 112.5,100.5C 114.903,100.607 116.736,99.607 118,97.5C 126.346,82.1442 133.346,66.1442 139,49.5C 139.495,51.4727 139.662,53.4727 139.5,55.5 Z"/>
    </g>
    <g transform="matrix(0.686709, 0, 0, 0.708841, 46.250534, 56.920918)" style="">
      <path style="opacity:0.999" fill="#ffd83a" d="M 130.5,54.5 C 131.376,54.3691 132.043,54.7025 132.5,55.5C 131.024,56.8802 130.024,58.5469 129.5,60.5C 128.207,64.4215 126.207,68.4215 123.5,72.5C 123.709,73.086 124.043,73.586 124.5,74C 122.321,74.4419 121.655,75.4419 122.5,77C 121.013,79.4852 119.179,81.6518 117,83.5C 116.383,84.4491 116.549,85.2825 117.5,86C 116.747,87.487 115.914,87.6537 115,86.5C 114.517,87.448 114.351,88.448 114.5,89.5C 113.448,89.3505 112.448,89.5172 111.5,90C 111.833,90.3333 112.167,90.6667 112.5,91C 110.479,91.513 108.979,92.6797 108,94.5C 107.333,93.8333 106.667,93.1667 106,92.5C 104.111,93.0974 102.278,93.4307 100.5,93.5C 100.511,92.5585 100.011,91.8919 99,91.5C 98.0546,91.9054 97.3879,92.572 97,93.5C 94.0488,92.9479 91.2154,91.6146 88.5,89.5C 91.8333,85.8333 95.1667,82.1667 98.5,78.5C 100.137,76.5248 101.804,74.5248 103.5,72.5C 113.024,67.2413 122.024,61.2413 130.5,54.5 Z"/>
    </g>
    <g transform="matrix(0.686709, 0, 0, 0.708841, 46.250534, 56.920918)" style="">
      <path style="opacity:0.999" fill="#ffc12e" d="M 190.5,66.5 C 185.95,68.4526 182.617,71.1192 180.5,74.5C 178.1,75.0183 176.1,76.185 174.5,78C 174.833,78.3333 175.167,78.6667 175.5,79C 174.5,79.3333 173.5,79.6667 172.5,80C 169.926,84.0382 166.926,86.8715 163.5,88.5C 162.167,86.5 160.833,84.5 159.5,82.5C 154.5,73.1667 149.5,63.8333 144.5,54.5C 144.369,53.7611 144.536,53.0944 145,52.5C 146,52.8333 147,53.1667 148,53.5C 148.308,52.6919 148.808,52.0253 149.5,51.5C 163.353,56.3362 177.02,61.3362 190.5,66.5 Z"/>
    </g>
    <g transform="matrix(0.686709, 0, 0, 0.708841, 46.250534, 56.920918)" style="">
      <path style="opacity:0.999" fill="#ffa324" d="M 85.5,53.5 C 91.1407,60.1416 97.1407,66.4749 103.5,72.5C 101.804,74.5248 100.137,76.5248 98.5,78.5C 95.6623,77.8295 93.1623,76.4962 91,74.5C 90.6667,74.8333 90.3333,75.1667 90,75.5C 87.8957,73.2616 85.5624,72.2616 83,72.5C 82.7645,70.8807 81.9311,69.8807 80.5,69.5C 81.5683,63.868 83.235,58.5346 85.5,53.5 Z"/>
    </g>
    <g transform="matrix(0.686709, 0, 0, 0.708841, 46.250534, 56.920918)" style="">
      <path style="opacity:0.999" fill="#ffb82c" d="M 190.5,66.5 C 193.426,67.4608 196.426,68.1274 199.5,68.5C 200.906,68.9731 201.573,69.9731 201.5,71.5C 201.688,73.1033 201.188,74.4366 200,75.5C 199.667,74.8333 199.333,74.1667 199,73.5C 197.086,76.0737 194.586,77.907 191.5,79C 191.5,80 191.5,81 191.5,82C 190.551,82.6172 189.718,82.4506 189,81.5C 186.297,84.538 183.297,87.2046 180,89.5C 179.261,91.2205 178.427,92.8872 177.5,94.5C 177.167,93.8333 176.833,93.1667 176.5,92.5C 175.749,93.376 175.249,94.376 175,95.5C 174.667,95.1667 174.333,94.8333 174,94.5C 172.941,96.6592 171.441,98.3259 169.5,99.5C 167.25,96.0012 165.25,92.3346 163.5,88.5C 166.926,86.8715 169.926,84.0382 172.5,80C 173.5,79.6667 174.5,79.3333 175.5,79C 175.167,78.6667 174.833,78.3333 174.5,78C 176.1,76.185 178.1,75.0183 180.5,74.5C 182.617,71.1192 185.95,68.4526 190.5,66.5 Z"/>
    </g>
    <g transform="matrix(0.686709, 0, 0, 0.708841, 46.250534, 56.920918)" style="">
      <path style="opacity:1" fill="#ffde40" d="M 144.5,54.5 C 149.5,63.8333 154.5,73.1667 159.5,82.5C 159.539,83.7562 159.039,84.7562 158,85.5C 155.868,84.2203 153.702,84.2203 151.5,85.5C 151.167,84.8333 150.833,84.1667 150.5,83.5C 148.941,84.0736 147.441,84.7402 146,85.5C 144,84.1667 142,82.8333 140,81.5C 139.667,82.5 139.333,83.5 139,84.5C 138.503,82.1902 138.337,79.8568 138.5,77.5C 138.5,73.1667 138.5,68.8333 138.5,64.5C 139.477,61.7131 139.81,58.7131 139.5,55.5C 140.309,53.7078 140.809,51.7078 141,49.5C 142.189,51.2331 143.356,52.8998 144.5,54.5 Z"/>
    </g>
    <g transform="matrix(0.686709, 0, 0, 0.708841, 46.250534, 56.920918)" style="">
      <path style="opacity:0.989" fill="#ffb229" d="M 201.5,71.5 C 204.341,75.8489 206.674,80.5156 208.5,85.5C 208.631,86.2389 208.464,86.9056 208,87.5C 203.953,85.5306 201.953,86.8639 202,91.5C 201.667,90.8333 201.333,90.1667 201,89.5C 197.375,92.8239 193.708,96.1572 190,99.5C 189.333,100.833 188.667,102.167 188,103.5C 187.586,103.043 187.086,102.709 186.5,102.5C 184.799,103.802 183.632,105.469 183,107.5C 182.667,107.167 182.333,106.833 182,106.5C 179.971,108.033 178.138,109.699 176.5,111.5C 176.167,111.5 175.833,111.5 175.5,111.5C 173.513,107.527 171.513,103.527 169.5,99.5C 171.441,98.3259 172.941,96.6592 174,94.5C 174.333,94.8333 174.667,95.1667 175,95.5C 175.249,94.376 175.749,93.376 176.5,92.5C 176.833,93.1667 177.167,93.8333 177.5,94.5C 178.427,92.8872 179.261,91.2205 180,89.5C 183.297,87.2046 186.297,84.538 189,81.5C 189.718,82.4506 190.551,82.6172 191.5,82C 191.5,81 191.5,80 191.5,79C 194.586,77.907 197.086,76.0737 199,73.5C 199.333,74.1667 199.667,74.8333 200,75.5C 201.188,74.4366 201.688,73.1033 201.5,71.5 Z"/>
    </g>
    <g transform="matrix(0.686709, 0, 0, 0.708841, 46.250534, 56.920918)" style="">
      <path style="opacity:0.966" fill="#ffb229" d="M 80.5,69.5 C 81.9311,69.8807 82.7645,70.8807 83,72.5C 85.5624,72.2616 87.8957,73.2616 90,75.5C 90.3333,75.1667 90.6667,74.8333 91,74.5C 93.1623,76.4962 95.6623,77.8295 98.5,78.5C 95.1667,82.1667 91.8333,85.8333 88.5,89.5C 87.1667,90.5 85.8333,91.5 84.5,92.5C 81.8827,90.7115 79.716,88.3782 78,85.5C 77.7216,86.4158 77.2216,87.0825 76.5,87.5C 77.5184,81.4268 78.8517,75.4268 80.5,69.5 Z"/>
    </g>
    <g transform="matrix(0.686709, 0, 0, 0.708841, 46.250534, 56.920918)" style="">
      <path style="opacity:0.999" fill="#fec228" d="M 138.5,64.5 C 138.5,68.8333 138.5,73.1667 138.5,77.5C 137.334,84.9765 136.667,92.6432 136.5,100.5C 135.662,100.842 135.328,101.508 135.5,102.5C 132.166,111.283 128.832,119.783 125.5,128C 121.934,132.618 118.934,137.118 116.5,141.5C 114.668,140.752 113.001,139.752 111.5,138.5C 103.833,132.5 96.1667,126.5 88.5,120.5C 94.5042,120.822 100.338,121.156 106,121.5C 106.626,119.009 107.459,119.009 108.5,121.5C 109.696,121.154 109.696,120.654 108.5,120C 111.333,119.833 112.833,118.333 113,115.5C 116.294,112.959 118.461,110.126 119.5,107C 122.513,102.629 125.513,98.296 128.5,94C 127.878,91.2465 128.878,88.9131 131.5,87C 131.167,86.6667 130.833,86.3333 130.5,86C 132.569,85.6758 132.902,84.8425 131.5,83.5C 134.458,77.3135 136.792,70.9802 138.5,64.5 Z"/>
    </g>
    <g transform="matrix(0.686709, 0, 0, 0.708841, 46.250534, 56.920918)" style="">
      <path style="opacity:0.99" fill="#ffab27" d="M 208.5,85.5 C 210.674,88.5154 212.341,91.8487 213.5,95.5C 210.334,98.0652 206.668,100.899 202.5,104C 198.538,108.475 194.204,112.308 189.5,115.5C 188.194,116.912 187.36,118.579 187,120.5C 184.892,119.388 183.392,120.054 182.5,122.5C 179.742,119.322 177.742,115.655 176.5,111.5C 178.138,109.699 179.971,108.033 182,106.5C 182.333,106.833 182.667,107.167 183,107.5C 183.632,105.469 184.799,103.802 186.5,102.5C 187.086,102.709 187.586,103.043 188,103.5C 188.667,102.167 189.333,100.833 190,99.5C 193.708,96.1572 197.375,92.8239 201,89.5C 201.333,90.1667 201.667,90.8333 202,91.5C 201.953,86.8639 203.953,85.5306 208,87.5C 208.464,86.9056 208.631,86.2389 208.5,85.5 Z"/>
    </g>
    <g transform="matrix(0.686709, 0, 0, 0.708841, 46.250534, 56.920918)" style="">
      <path style="opacity:0.012" fill="#ffb0fb" d="M 248.5,92.5 C 248.5,91.8333 248.167,91.5 247.5,91.5C 247.747,89.0248 248.413,89.0248 249.5,91.5C 249.376,92.1067 249.043,92.44 248.5,92.5 Z"/>
    </g>
    <g transform="matrix(0.686709, 0, 0, 0.708841, 46.250534, 56.920918)" style="">
      <path style="opacity:0.008" fill="#ff7ffe" d="M 241.5,92.5 C 240.833,92.5 240.5,92.8333 240.5,93.5C 238.025,93.2533 238.025,92.5866 240.5,91.5C 241.107,91.6236 241.44,91.9569 241.5,92.5 Z"/>
    </g>
    <g transform="matrix(0.686709, 0, 0, 0.708841, 46.250534, 56.920918)" style="">
      <path style="opacity:0.999" fill="#ffd235" d="M 138.5,77.5 C 138.337,79.8568 138.503,82.1902 139,84.5C 139.333,83.5 139.667,82.5 140,81.5C 142,82.8333 144,84.1667 146,85.5C 147.441,84.7402 148.941,84.0736 150.5,83.5C 150.833,84.1667 151.167,84.8333 151.5,85.5C 153.702,84.2203 155.868,84.2203 158,85.5C 159.039,84.7562 159.539,83.7562 159.5,82.5C 160.833,84.5 162.167,86.5 163.5,88.5C 165.25,92.3346 167.25,96.0012 169.5,99.5C 171.513,103.527 173.513,107.527 175.5,111.5C 175.582,113.252 174.749,114.252 173,114.5C 171.584,113.427 170.25,113.427 169,114.5C 167.667,113.833 166.667,112.833 166,111.5C 162.879,112.047 159.879,112.047 157,111.5C 156.055,111.905 155.388,112.572 155,113.5C 154.676,111.431 153.842,111.098 152.5,112.5C 147.687,111.85 143.187,110.517 139,108.5C 138.667,109.5 138.333,110.5 138,111.5C 136.585,108.042 136.085,104.375 136.5,100.5C 136.667,92.6432 137.334,84.9765 138.5,77.5 Z"/>
    </g>
    <g transform="matrix(0.686709, 0, 0, 0.708841, 46.250534, 56.920918)" style="">
      <path style="opacity:0.008" fill="#ff7700" d="M 236.5,96.5 C 235.833,96.5 235.5,96.8333 235.5,97.5C 233.025,97.2533 233.025,96.5866 235.5,95.5C 236.107,95.6236 236.44,95.9569 236.5,96.5 Z"/>
    </g>
    <g transform="matrix(0.686709, 0, 0, 0.708841, 46.250534, 56.920918)" style="">
      <path style="opacity:0.016" fill="#febf00" d="M 255.5,97.5 C 255.5,97.8333 255.5,98.1667 255.5,98.5C 254.83,98.0187 254.83,97.6853 255.5,97.5 Z"/>
    </g>
    <g transform="matrix(0.686709, 0, 0, 0.708841, 46.250534, 56.920918)" style="">
      <path style="opacity:0.024" fill="#f5c22f" d="M 72.5,99.5 C 71.448,99.6495 70.448,99.4828 69.5,99C 70.8491,98.2276 71.6824,97.0609 72,95.5C 72.49,96.7932 72.6567,98.1266 72.5,99.5 Z"/>
    </g>
    <g transform="matrix(0.686709, 0, 0, 0.708841, 46.250534, 56.920918)" style="">
      <path style="opacity:0.012" fill="#ffc445" d="M 65.5,100.5 C 66.2506,99.4265 67.2506,99.2599 68.5,100C 67.552,100.483 66.552,100.649 65.5,100.5 Z"/>
    </g>
    <g transform="matrix(0.686709, 0, 0, 0.708841, 46.250534, 56.920918)" style="">
      <path style="opacity:0.012" fill="#ffc445" d="M 61.5,101.5 C 62.2506,100.427 63.2506,100.26 64.5,101C 63.552,101.483 62.552,101.649 61.5,101.5 Z"/>
    </g>
    <g transform="matrix(0.686709, 0, 0, 0.708841, 46.250534, 56.920918)" style="">
      <path style="opacity:0.008" fill="#ff7700" d="M 231.5,100.5 C 230.833,100.5 230.5,100.833 230.5,101.5C 228.025,101.253 228.025,100.587 230.5,99.5C 231.107,99.6236 231.44,99.9569 231.5,100.5 Z"/>
    </g>
    <g transform="matrix(0.686709, 0, 0, 0.708841, 46.250534, 56.920918)" style="">
      <path style="opacity:0.974" fill="#fd8f0c" d="M 247.5,91.5 C 248.167,91.5 248.5,91.8333 248.5,92.5C 250.167,94.8333 252.167,96.8333 254.5,98.5C 254.5,99.1667 254.833,99.5 255.5,99.5C 255.5,100.833 255.5,102.167 255.5,103.5C 254.833,103.5 254.5,103.833 254.5,104.5C 253.662,104.842 253.328,105.508 253.5,106.5C 251.412,108.336 250.079,110.669 249.5,113.5C 248.662,113.842 248.328,114.508 248.5,115.5C 248.167,115.5 247.833,115.5 247.5,115.5C 243.094,111.116 238.428,106.949 233.5,103C 231.893,103.019 230.226,103.185 228.5,103.5C 229.167,102.833 229.833,102.167 230.5,101.5C 231.167,101.5 231.5,101.167 231.5,100.5C 232.872,99.4884 234.205,98.4884 235.5,97.5C 236.167,97.5 236.5,97.1667 236.5,96.5C 237.872,95.4884 239.205,94.4884 240.5,93.5C 241.167,93.5 241.5,93.1667 241.5,92.5C 243.249,90.4686 245.249,90.1353 247.5,91.5 Z"/>
    </g>
    <g transform="matrix(0.686709, 0, 0, 0.708841, 46.250534, 56.920918)" style="">
      <path style="opacity:0.998" fill="#ffa123" d="M 213.5,95.5 C 215.833,99.5 218.167,103.5 220.5,107.5C 220.328,108.492 220.662,109.158 221.5,109.5C 225.297,119.093 229.63,128.427 234.5,137.5C 223.177,136.073 211.844,134.74 200.5,133.5C 198.393,132.532 196.059,132.198 193.5,132.5C 191.285,131.732 188.952,131.065 186.5,130.5C 186.167,130.5 185.833,130.5 185.5,130.5C 184.552,127.86 183.552,125.193 182.5,122.5C 183.392,120.054 184.892,119.388 187,120.5C 187.36,118.579 188.194,116.912 189.5,115.5C 194.204,112.308 198.538,108.475 202.5,104C 206.668,100.899 210.334,98.0652 213.5,95.5 Z"/>
    </g>
    <g transform="matrix(0.686709, 0, 0, 0.708841, 46.250534, 56.920918)" style="">
      <path style="opacity:0.981" fill="#fec028" d="M 68.5,101.5 C 68.6107,102.117 68.944,102.617 69.5,103C 68.3333,103.5 67.5,104.333 67,105.5C 66.7638,107.764 66.2638,109.931 65.5,112C 66.2135,113.343 65.8802,114.676 64.5,116C 64.8333,116.333 65.1667,116.667 65.5,117C 64,117.833 62.8333,119 62,120.5C 58.8057,120.069 55.4723,120.069 52,120.5C 47.982,119.006 44.3153,118.673 41,119.5C 37.5579,117.636 34.0579,117.303 30.5,118.5C 29.1667,116.5 27.8333,114.5 26.5,112.5C 40.2298,108.233 54.2298,104.566 68.5,101.5 Z"/>
    </g>
    <g transform="matrix(0.686709, 0, 0, 0.708841, 46.250534, 56.920918)" style="">
      <path style="opacity:0.004" fill="#ffb3fc" d="M 226.5,104.5 C 225.833,104.5 225.5,104.833 225.5,105.5C 223.025,105.253 223.025,104.587 225.5,103.5C 226.107,103.624 226.44,103.957 226.5,104.5 Z"/>
    </g>
    <g transform="matrix(0.686709, 0, 0, 0.708841, 46.250534, 56.920918)" style="">
      <path style="opacity:0.012" fill="#ff9c00" d="M 254.5,104.5 C 254.833,104.5 255.167,104.5 255.5,104.5C 255.5,105.167 255.5,105.833 255.5,106.5C 255.167,106.5 254.833,106.5 254.5,106.5C 254.5,105.833 254.5,105.167 254.5,104.5 Z"/>
    </g>
    <g transform="matrix(0.686709, 0, 0, 0.708841, 46.250534, 56.920918)" style="">
      <path style="opacity:0.999" fill="#ffca2e" d="M 136.5,100.5 C 136.085,104.375 136.585,108.042 138,111.5C 138.333,110.5 138.667,109.5 139,108.5C 143.187,110.517 147.687,111.85 152.5,112.5C 153.842,111.098 154.676,111.431 155,113.5C 155.388,112.572 156.055,111.905 157,111.5C 159.879,112.047 162.879,112.047 166,111.5C 166.667,112.833 167.667,113.833 169,114.5C 170.25,113.427 171.584,113.427 173,114.5C 174.749,114.252 175.582,113.252 175.5,111.5C 175.833,111.5 176.167,111.5 176.5,111.5C 177.742,115.655 179.742,119.322 182.5,122.5C 183.552,125.193 184.552,127.86 185.5,130.5C 185.167,130.5 184.833,130.5 184.5,130.5C 180.208,129.113 175.542,128.113 170.5,127.5C 169.284,128.002 168.117,128.335 167,128.5C 166.667,127.833 166.333,127.167 166,126.5C 162.536,126.372 159.203,126.705 156,127.5C 154.333,126.5 152.667,125.5 151,124.5C 148.056,125.257 145.056,125.923 142,126.5C 141.05,125.978 140.216,125.311 139.5,124.5C 137.801,125.815 136.135,125.815 134.5,124.5C 134.944,117.173 135.277,109.84 135.5,102.5C 135.328,101.508 135.662,100.842 136.5,100.5 Z"/>
    </g>
    <g transform="matrix(0.686709, 0, 0, 0.708841, 46.250534, 56.920918)" style="">
      <path style="opacity:0.004" fill="#f4c3ff" d="M 222.5,107.5 C 221.833,107.5 221.167,107.5 220.5,107.5C 220.786,105.067 221.452,105.067 222.5,107.5 Z"/>
    </g>
    <g transform="matrix(0.686709, 0, 0, 0.708841, 46.250534, 56.920918)" style="">
      <path style="opacity:0.004" fill="#ffd6fe" d="M 253.5,106.5 C 253.833,106.5 254.167,106.5 254.5,106.5C 254.167,109.167 253.833,109.167 253.5,106.5 Z"/>
    </g>
    <g transform="matrix(0.686709, 0, 0, 0.708841, 46.250534, 56.920918)" style="">
      <path style="opacity:0.978" fill="#fb7305" d="M 247.5,115.5 C 247.5,115.833 247.5,116.167 247.5,116.5C 246.662,116.842 246.328,117.508 246.5,118.5C 244.808,120.205 243.475,122.205 242.5,124.5C 235.49,119.478 228.823,114.145 222.5,108.5C 222.5,108.167 222.5,107.833 222.5,107.5C 223.71,107.068 224.71,106.401 225.5,105.5C 226.167,105.5 226.5,105.167 226.5,104.5C 227.167,104.167 227.833,103.833 228.5,103.5C 230.226,103.185 231.893,103.019 233.5,103C 238.428,106.949 243.094,111.116 247.5,115.5 Z"/>
    </g>
    <g transform="matrix(0.686709, 0, 0, 0.708841, 46.250534, 56.920918)" style="">
      <path style="opacity:0.961" fill="#fa6202" d="M 222.5,108.5 C 228.823,114.145 235.49,119.478 242.5,124.5C 242.5,124.833 242.5,125.167 242.5,125.5C 241.662,125.842 241.328,126.508 241.5,127.5C 240.833,127.5 240.5,127.833 240.5,128.5C 239.662,128.842 239.328,129.508 239.5,130.5C 238.662,130.842 238.328,131.508 238.5,132.5C 237.094,132.973 236.427,133.973 236.5,135.5C 235.662,135.842 235.328,136.508 235.5,137.5C 235.167,137.5 234.833,137.5 234.5,137.5C 229.63,128.427 225.297,119.093 221.5,109.5C 221.5,108.833 221.833,108.5 222.5,108.5 Z"/>
    </g>
    <g transform="matrix(0.686709, 0, 0, 0.708841, 46.250534, 56.920918)" style="">
      <path style="opacity:0.004" fill="#ff46ff" d="M 249.5,113.5 C 250.833,114.167 250.833,114.833 249.5,115.5C 249.5,114.833 249.5,114.167 249.5,113.5 Z"/>
    </g>
    <g transform="matrix(0.686709, 0, 0, 0.708841, 46.250534, 56.920918)" style="">
      <path style="opacity:0.016" fill="#fe8000" d="M 248.5,115.5 C 248.833,115.5 249.167,115.5 249.5,115.5C 249.315,116.17 248.981,116.17 248.5,115.5 Z"/>
    </g>
    <g transform="matrix(0.686709, 0, 0, 0.708841, 46.250534, 56.920918)" style="">
      <path style="opacity:0.012" fill="#ff6400" d="M 247.5,116.5 C 247.833,116.5 248.167,116.5 248.5,116.5C 248.672,117.492 248.338,118.158 247.5,118.5C 247.5,117.833 247.5,117.167 247.5,116.5 Z"/>
    </g>
    <g transform="matrix(0.686709, 0, 0, 0.708841, 46.250534, 56.920918)" style="">
      <path style="opacity:0.004" fill="#ffd6fe" d="M 246.5,118.5 C 246.833,118.5 247.167,118.5 247.5,118.5C 247.167,121.167 246.833,121.167 246.5,118.5 Z"/>
    </g>
    <g transform="matrix(0.686709, 0, 0, 0.708841, 46.250534, 56.920918)" style="">
      <path style="opacity:0.999" fill="#feb11d" d="M 72.5,100.5 C 72.9382,100.435 73.2716,100.601 73.5,101C 71.1677,104.019 71.1677,106.852 73.5,109.5C 72.9033,109.735 72.5699,110.235 72.5,111C 75.0329,116.568 78.1996,121.735 82,126.5C 83.8456,129.173 84.8456,131.839 85,134.5C 85.6708,135.252 86.5041,135.586 87.5,135.5C 86.9717,136.721 86.305,137.887 85.5,139C 70.1703,139.5 54.837,139.667 39.5,139.5C 36.778,132.388 33.778,125.388 30.5,118.5C 34.0579,117.303 37.5579,117.636 41,119.5C 44.3153,118.673 47.982,119.006 52,120.5C 55.4723,120.069 58.8057,120.069 62,120.5C 62.8333,119 64,117.833 65.5,117C 65.1667,116.667 64.8333,116.333 64.5,116C 65.8802,114.676 66.2135,113.343 65.5,112C 66.2638,109.931 66.7638,107.764 67,105.5C 67.5,104.333 68.3333,103.5 69.5,103C 68.944,102.617 68.6107,102.117 68.5,101.5C 69.7079,100.766 71.0413,100.433 72.5,100.5 Z"/>
    </g>
    <g transform="matrix(0.686709, 0, 0, 0.708841, 46.250534, 56.920918)" style="">
      <path style="opacity:0.997" fill="#ff8717" d="M 26.5,112.5 C 27.8333,114.5 29.1667,116.5 30.5,118.5C 33.778,125.388 36.778,132.388 39.5,139.5C 37.0096,141.412 35.0096,143.745 33.5,146.5C 30.5,148.833 27.8333,151.5 25.5,154.5C 24.8333,154.833 24.1667,155.167 23.5,155.5C 23.614,147.036 23.2807,138.703 22.5,130.5C 23.8333,124.5 25.1667,118.5 26.5,112.5 Z"/>
    </g>
    <g transform="matrix(0.686709, 0, 0, 0.708841, 46.250534, 56.920918)" style="">
      <path style="opacity:0.999" fill="#fec428" d="M 134.5,124.5 C 136.135,125.815 137.801,125.815 139.5,124.5C 140.216,125.311 141.05,125.978 142,126.5C 145.056,125.923 148.056,125.257 151,124.5C 152.667,125.5 154.333,126.5 156,127.5C 159.203,126.705 162.536,126.372 166,126.5C 166.333,127.167 166.667,127.833 167,128.5C 168.117,128.335 169.284,128.002 170.5,127.5C 175.542,128.113 180.208,129.113 184.5,130.5C 182.036,131.567 179.703,132.9 177.5,134.5C 170.5,137.167 163.5,139.833 156.5,142.5C 154.742,141.001 152.909,140.668 151,141.5C 150.333,138.833 149.667,138.833 149,141.5C 148.333,140.833 147.667,140.167 147,139.5C 143.328,140.492 139.494,139.825 135.5,137.5C 134.508,133.217 134.174,128.884 134.5,124.5 Z"/>
    </g>
    <g transform="matrix(0.686709, 0, 0, 0.708841, 46.250534, 56.920918)" style="">
      <path style="opacity:0.004" fill="#ff46ff" d="M 242.5,125.5 C 243.833,126.167 243.833,126.833 242.5,127.5C 242.5,126.833 242.5,126.167 242.5,125.5 Z"/>
    </g>
    <g transform="matrix(0.686709, 0, 0, 0.708841, 46.250534, 56.920918)" style="">
      <path style="opacity:0.016" fill="#fe4000" d="M 241.5,127.5 C 241.833,127.5 242.167,127.5 242.5,127.5C 242.315,128.17 241.981,128.17 241.5,127.5 Z"/>
    </g>
    <g transform="matrix(0.686709, 0, 0, 0.708841, 46.250534, 56.920918)" style="">
      <path style="opacity:0.008" fill="#fe8000" d="M 240.5,128.5 C 240.833,128.5 241.167,128.5 241.5,128.5C 241.672,129.492 241.338,130.158 240.5,130.5C 240.5,129.833 240.5,129.167 240.5,128.5 Z"/>
    </g>
    <g transform="matrix(0.686709, 0, 0, 0.708841, 46.250534, 56.920918)" style="">
      <path style="opacity:0.004" fill="#ff2200" d="M 239.5,130.5 C 239.833,130.5 240.167,130.5 240.5,130.5C 240.672,131.492 240.338,132.158 239.5,132.5C 239.5,131.833 239.5,131.167 239.5,130.5 Z"/>
    </g>
    <g transform="matrix(0.686709, 0, 0, 0.708841, 46.250534, 56.920918)" style="">
      <path style="opacity:0.012" fill="#ffb81b" d="M 186.5,132.5 C 188.833,132.5 191.167,132.5 193.5,132.5C 193.5,132.833 193.5,133.167 193.5,133.5C 190.789,133.185 188.456,133.852 186.5,135.5C 186.5,134.5 186.5,133.5 186.5,132.5 Z"/>
    </g>
    <g transform="matrix(0.686709, 0, 0, 0.708841, 46.250534, 56.920918)" style="">
      <path style="opacity:0.016" fill="#be4000" d="M 238.5,132.5 C 238.833,132.5 239.167,132.5 239.5,132.5C 239.315,133.17 238.981,133.17 238.5,132.5 Z"/>
    </g>
    <g transform="matrix(0.686709, 0, 0, 0.708841, 46.250534, 56.920918)" style="">
      <path style="opacity:0.012" fill="#ffb30e" d="M 193.5,133.5 C 195.833,133.5 198.167,133.5 200.5,133.5C 200.5,133.833 200.5,134.167 200.5,134.5C 197.941,134.802 195.607,134.468 193.5,133.5 Z"/>
    </g>
    <g transform="matrix(0.686709, 0, 0, 0.708841, 46.250534, 56.920918)" style="">
      <path style="opacity:0.012" fill="#ffab08" d="M 200.5,134.5 C 202.527,134.338 204.527,134.505 206.5,135C 204.288,135.789 202.288,135.622 200.5,134.5 Z"/>
    </g>
    <g transform="matrix(0.686709, 0, 0, 0.708841, 46.250534, 56.920918)" style="">
      <path style="opacity:0.012" fill="#fe5500" d="M 237.5,134.5 C 238.833,135.167 238.833,135.167 237.5,134.5 Z"/>
    </g>
    <g transform="matrix(0.686709, 0, 0, 0.708841, 46.250534, 56.920918)" style="">
      <path style="opacity:0.012" fill="#feaa00" d="M 185.5,135.5 C 185.833,135.5 186.167,135.5 186.5,135.5C 186.167,138.167 185.833,138.167 185.5,135.5 Z"/>
    </g>
    <g transform="matrix(0.686709, 0, 0, 0.708841, 46.250534, 56.920918)" style="">
      <path style="opacity:0.012" fill="#ffab08" d="M 207.5,136.5 C 209.288,135.378 211.288,135.211 213.5,136C 211.527,136.495 209.527,136.662 207.5,136.5 Z"/>
    </g>
    <g transform="matrix(0.686709, 0, 0, 0.708841, 46.250534, 56.920918)" style="">
      <path style="opacity:0.012" fill="#ffa70c" d="M 220.5,137.5 C 218.473,137.662 216.473,137.495 214.5,137C 216.712,136.211 218.712,136.378 220.5,137.5 Z"/>
    </g>
    <g transform="matrix(0.686709, 0, 0, 0.708841, 46.250534, 56.920918)" style="">
      <path style="opacity:0.008" fill="#ff7200" d="M 236.5,135.5 C 236.833,135.5 237.167,135.5 237.5,135.5C 237.672,136.492 237.338,137.158 236.5,137.5C 236.5,136.833 236.5,136.167 236.5,135.5 Z"/>
    </g>
    <g transform="matrix(0.686709, 0, 0, 0.708841, 46.250534, 56.920918)" style="">
      <path style="opacity:0.999" fill="#fec32f" d="M 88.5,134.5 C 100.66,145.483 113.327,155.983 126.5,166C 136.158,169.427 145.491,168.594 154.5,163.5C 157.012,164.756 159.512,164.756 162,163.5C 164.621,165.227 167.455,166.56 170.5,167.5C 171.298,167.957 171.631,168.624 171.5,169.5C 164.371,171.205 157.704,173.872 151.5,177.5C 149.716,177.893 148.05,178.559 146.5,179.5C 140.366,177.223 134.032,175.723 127.5,175C 115.883,168.61 105.049,161.11 95,152.5C 94.6012,152.728 94.4346,153.062 94.5,153.5C 89.0203,153.874 83.5203,153.874 78,153.5C 62.9276,151.157 48.0943,148.823 33.5,146.5C 35.0096,143.745 37.0096,141.412 39.5,139.5C 54.837,139.667 70.1703,139.5 85.5,139C 86.305,137.887 86.9717,136.721 87.5,135.5C 87.5,134.833 87.8333,134.5 88.5,134.5 Z"/>
    </g>
    <g transform="matrix(0.686709, 0, 0, 0.708841, 46.250534, 56.920918)" style="">
      <path style="opacity:0.012" fill="#ff8108" d="M 220.5,137.5 C 223.059,137.198 225.393,137.532 227.5,138.5C 224.941,138.802 222.607,138.468 220.5,137.5 Z"/>
    </g>
    <g transform="matrix(0.686709, 0, 0, 0.708841, 46.250534, 56.920918)" style="">
      <path style="opacity:0.004" fill="#fe0000" d="M 235.5,137.5 C 235.833,137.5 236.167,137.5 236.5,137.5C 236.315,138.17 235.981,138.17 235.5,137.5 Z"/>
    </g>
    <g transform="matrix(0.686709, 0, 0, 0.708841, 46.250534, 56.920918)" style="">
      <path style="opacity:0.999" fill="#feba21" d="M 135.5,102.5 C 135.277,109.84 134.944,117.173 134.5,124.5C 134.174,128.884 134.508,133.217 135.5,137.5C 139.494,139.825 143.328,140.492 147,139.5C 147.667,140.167 148.333,140.833 149,141.5C 149.667,138.833 150.333,138.833 151,141.5C 152.909,140.668 154.742,141.001 156.5,142.5C 148.771,146.531 140.771,150.198 132.5,153.5C 126.841,149.829 121.508,145.829 116.5,141.5C 118.934,137.118 121.934,132.618 125.5,128C 128.832,119.783 132.166,111.283 135.5,102.5 Z"/>
    </g>
    <g transform="matrix(0.686709, 0, 0, 0.708841, 46.250534, 56.920918)" style="">
      <path style="opacity:0.012" fill="#fe8000" d="M 184.5,138.5 C 185.833,139.167 185.833,139.833 184.5,140.5C 184.5,139.833 184.5,139.167 184.5,138.5 Z"/>
    </g>
    <g transform="matrix(0.686709, 0, 0, 0.708841, 46.250534, 56.920918)" style="">
      <path style="opacity:0.012" fill="#ff7806" d="M 227.5,138.5 C 230.167,138.5 232.833,138.5 235.5,138.5C 232.833,139.833 230.167,139.833 227.5,138.5 Z"/>
    </g>
    <g transform="matrix(0.686709, 0, 0, 0.708841, 46.250534, 56.920918)" style="">
      <path style="opacity:0.012" fill="#ffa1fe" d="M 183.5,140.5 C 183.833,140.5 184.167,140.5 184.5,140.5C 184.737,141.791 184.404,142.791 183.5,143.5C 183.5,142.5 183.5,141.5 183.5,140.5 Z"/>
    </g>
    <g transform="matrix(0.686709, 0, 0, 0.708841, 46.250534, 56.920918)" style="">
      <path style="opacity:0.012" fill="#ff8ffd" d="M 182.5,143.5 C 182.833,143.5 183.167,143.5 183.5,143.5C 183.737,144.791 183.404,145.791 182.5,146.5C 182.5,145.5 182.5,144.5 182.5,143.5 Z"/>
    </g>
    <g transform="matrix(0.686709, 0, 0, 0.708841, 46.250534, 56.920918)" style="">
      <path style="opacity:0.012" fill="#fe8000" d="M 181.5,146.5 C 181.833,146.5 182.167,146.5 182.5,146.5C 182.672,147.492 182.338,148.158 181.5,148.5C 181.5,147.833 181.5,147.167 181.5,146.5 Z"/>
    </g>
    <g transform="matrix(0.686709, 0, 0, 0.708841, 46.250534, 56.920918)" style="">
      <path style="opacity:0.016" fill="#ffb0fb" d="M 180.5,148.5 C 180.833,148.5 181.167,148.5 181.5,148.5C 181.737,149.791 181.404,150.791 180.5,151.5C 180.5,150.5 180.5,149.5 180.5,148.5 Z"/>
    </g>
    <g transform="matrix(0.686709, 0, 0, 0.708841, 46.250534, 56.920918)" style="">
      <path style="opacity:0.999" fill="#ffb42a" d="M 33.5,146.5 C 48.0943,148.823 62.9276,151.157 78,153.5C 83.5203,153.874 89.0203,153.874 94.5,153.5C 95.7375,156.738 97.4042,159.738 99.5,162.5C 98.7784,162.918 98.2784,163.584 98,164.5C 96.8061,163.57 95.4728,162.903 94,162.5C 91.6491,162.82 89.3157,163.153 87,163.5C 86,162.833 85,162.167 84,161.5C 80.6035,161.59 77.2702,161.59 74,161.5C 72.1551,159.65 70.1551,159.317 68,160.5C 65.5393,159.782 63.0393,159.115 60.5,158.5C 59.0944,159.668 57.9277,159.335 57,157.5C 55.0258,157.647 53.0258,157.981 51,158.5C 50.3333,157.833 49.6667,157.167 49,156.5C 47.4173,156.493 45.7506,156.826 44,157.5C 42.1551,155.65 40.1551,155.317 38,156.5C 33.9913,155.046 29.8247,154.379 25.5,154.5C 27.8333,151.5 30.5,148.833 33.5,146.5 Z"/>
    </g>
    <g transform="matrix(0.686709, 0, 0, 0.708841, 46.250534, 56.920918)" style="">
      <path style="opacity:0.998" fill="#f48615" d="M 82.5,116.5 C 84.7721,117.441 86.7721,118.774 88.5,120.5C 96.1667,126.5 103.833,132.5 111.5,138.5C 111.062,138.435 110.728,138.601 110.5,139C 113.833,141 116.5,143.667 118.5,147C 123.429,148.264 126.763,151.264 128.5,156C 130.199,156.958 132.033,157.458 134,157.5C 150.372,152.04 164.872,144.374 177.5,134.5C 179.703,132.9 182.036,131.567 184.5,130.5C 184.833,130.5 185.167,130.5 185.5,130.5C 185.833,130.5 186.167,130.5 186.5,130.5C 186.5,131.167 186.5,131.833 186.5,132.5C 185.596,133.209 185.263,134.209 185.5,135.5C 184.662,135.842 184.328,136.508 184.5,137.5C 183.778,137.082 183.278,136.416 183,135.5C 181.883,136.949 181.216,138.616 181,140.5C 179.686,141.313 178.519,142.313 177.5,143.5C 165.35,148.743 153.35,154.243 141.5,160C 137.179,160.499 132.846,160.666 128.5,160.5C 128.67,159.178 128.337,158.011 127.5,157C 117.633,151.47 109.3,144.137 102.5,135C 95.472,131.159 89.1387,126.326 83.5,120.5C 82.9598,119.252 82.2931,118.085 81.5,117C 81.7284,116.601 82.0618,116.435 82.5,116.5 Z"/>
    </g>
    <g transform="matrix(0.686709, 0, 0, 0.708841, 46.250534, 56.920918)" style="">
      <path style="opacity:0.999" fill="#ed6f10" d="M 177.5,134.5 C 164.872,144.374 150.372,152.04 134,157.5C 132.033,157.458 130.199,156.958 128.5,156C 126.763,151.264 123.429,148.264 118.5,147C 116.5,143.667 113.833,141 110.5,139C 110.728,138.601 111.062,138.435 111.5,138.5C 113.001,139.752 114.668,140.752 116.5,141.5C 121.508,145.829 126.841,149.829 132.5,153.5C 140.771,150.198 148.771,146.531 156.5,142.5C 163.5,139.833 170.5,137.167 177.5,134.5 Z"/>
    </g>
    <g transform="matrix(0.686709, 0, 0, 0.708841, 46.250534, 56.920918)" style="">
      <path style="opacity:0.012" fill="#ec91fc" d="M 179.5,151.5 C 179.833,151.5 180.167,151.5 180.5,151.5C 180.737,152.791 180.404,153.791 179.5,154.5C 179.5,153.5 179.5,152.5 179.5,151.5 Z"/>
    </g>
    <g transform="matrix(0.686709, 0, 0, 0.708841, 46.250534, 56.920918)" style="">
      <path style="opacity:0.012" fill="#ff9c00" d="M 178.5,154.5 C 178.833,154.5 179.167,154.5 179.5,154.5C 179.672,155.492 179.338,156.158 178.5,156.5C 178.5,155.833 178.5,155.167 178.5,154.5 Z"/>
    </g>
    <g transform="matrix(0.686709, 0, 0, 0.708841, 46.250534, 56.920918)" style="">
      <path style="opacity:1" fill="#f79c1d" d="M 73.5,109.5 C 76.8103,111.482 79.8103,113.815 82.5,116.5C 82.0618,116.435 81.7284,116.601 81.5,117C 82.2931,118.085 82.9598,119.252 83.5,120.5C 89.1387,126.326 95.472,131.159 102.5,135C 109.3,144.137 117.633,151.47 127.5,157C 128.337,158.011 128.67,159.178 128.5,160.5C 132.846,160.666 137.179,160.499 141.5,160C 153.35,154.243 165.35,148.743 177.5,143.5C 178.519,142.313 179.686,141.313 181,140.5C 181.216,138.616 181.883,136.949 183,135.5C 183.278,136.416 183.778,137.082 184.5,137.5C 184.5,137.833 184.5,138.167 184.5,138.5C 183.662,138.842 183.328,139.508 183.5,140.5C 182.596,141.209 182.263,142.209 182.5,143.5C 181.596,144.209 181.263,145.209 181.5,146.5C 180.662,146.842 180.328,147.508 180.5,148.5C 179.596,149.209 179.263,150.209 179.5,151.5C 178.596,152.209 178.263,153.209 178.5,154.5C 178.167,154.5 177.833,154.5 177.5,154.5C 177.649,153.448 177.483,152.448 177,151.5C 165.865,154.78 154.698,158.946 143.5,164C 139.467,164.829 135.633,165.329 132,165.5C 127.592,163.43 123.425,160.93 119.5,158C 110.115,149.59 100.449,141.59 90.5,134C 89.5632,133.308 88.8966,133.475 88.5,134.5C 87.8333,134.5 87.5,134.833 87.5,135.5C 86.5041,135.586 85.6708,135.252 85,134.5C 84.8456,131.839 83.8456,129.173 82,126.5C 78.1996,121.735 75.0329,116.568 72.5,111C 72.5699,110.235 72.9033,109.735 73.5,109.5 Z"/>
    </g>
    <g transform="matrix(0.686709, 0, 0, 0.708841, 46.250534, 56.920918)" style="">
      <path style="opacity:0.999" fill="#fbb024" d="M 88.5,134.5 C 88.8966,133.475 89.5632,133.308 90.5,134C 100.449,141.59 110.115,149.59 119.5,158C 123.425,160.93 127.592,163.43 132,165.5C 135.633,165.329 139.467,164.829 143.5,164C 154.698,158.946 165.865,154.78 177,151.5C 177.483,152.448 177.649,153.448 177.5,154.5C 177.5,155.167 177.5,155.833 177.5,156.5C 176.596,157.209 176.263,158.209 176.5,159.5C 175.596,160.209 175.263,161.209 175.5,162.5C 174.596,163.209 174.263,164.209 174.5,165.5C 173.326,166.514 172.66,167.847 172.5,169.5C 172.167,169.5 171.833,169.5 171.5,169.5C 171.631,168.624 171.298,167.957 170.5,167.5C 167.455,166.56 164.621,165.227 162,163.5C 159.512,164.756 157.012,164.756 154.5,163.5C 145.491,168.594 136.158,169.427 126.5,166C 113.327,155.983 100.66,145.483 88.5,134.5 Z"/>
    </g>
    <g transform="matrix(0.686709, 0, 0, 0.708841, 46.250534, 56.920918)" style="">
      <path style="opacity:0.016" fill="#ba7d11" d="M 177.5,156.5 C 177.833,156.5 178.167,156.5 178.5,156.5C 178.737,157.791 178.404,158.791 177.5,159.5C 177.5,158.5 177.5,157.5 177.5,156.5 Z"/>
    </g>
    <g transform="matrix(0.686709, 0, 0, 0.708841, 46.250534, 56.920918)" style="">
      <path style="opacity:0.999" fill="#ffa725" d="M 25.5,154.5 C 29.8247,154.379 33.9913,155.046 38,156.5C 40.1551,155.317 42.1551,155.65 44,157.5C 45.7506,156.826 47.4173,156.493 49,156.5C 49.6667,157.167 50.3333,157.833 51,158.5C 53.0258,157.981 55.0258,157.647 57,157.5C 57.9277,159.335 59.0944,159.668 60.5,158.5C 63.0393,159.115 65.5393,159.782 68,160.5C 70.1551,159.317 72.1551,159.65 74,161.5C 77.2702,161.59 80.6035,161.59 84,161.5C 85,162.167 86,162.833 87,163.5C 89.3157,163.153 91.6491,162.82 94,162.5C 95.4728,162.903 96.8061,163.57 98,164.5C 98.2784,163.584 98.7784,162.918 99.5,162.5C 100.913,165.661 102.58,168.661 104.5,171.5C 101.438,172.115 98.2709,172.449 95,172.5C 90.9353,171.283 86.9353,170.283 83,169.5C 81.2342,170.502 79.5675,170.168 78,168.5C 77.6667,168.833 77.3333,169.167 77,169.5C 57.3918,166.164 37.8918,163.498 18.5,161.5C 20.1667,159.5 21.8333,157.5 23.5,155.5C 24.1667,155.167 24.8333,154.833 25.5,154.5 Z"/>
    </g>
    <g transform="matrix(0.686709, 0, 0, 0.708841, 46.250534, 56.920918)" style="">
      <path style="opacity:0.012" fill="#ffb5ff" d="M 176.5,159.5 C 176.833,159.5 177.167,159.5 177.5,159.5C 177.737,160.791 177.404,161.791 176.5,162.5C 176.5,161.5 176.5,160.5 176.5,159.5 Z"/>
    </g>
    <g transform="matrix(0.686709, 0, 0, 0.708841, 46.250534, 56.920918)" style="">
      <path style="opacity:0.012" fill="#ff8ffd" d="M 175.5,162.5 C 175.833,162.5 176.167,162.5 176.5,162.5C 176.737,163.791 176.404,164.791 175.5,165.5C 175.5,164.5 175.5,163.5 175.5,162.5 Z"/>
    </g>
    <g transform="matrix(0.686709, 0, 0, 0.708841, 46.250534, 56.920918)" style="">
      <path style="opacity:0.008" fill="#ff951c" d="M 174.5,165.5 C 174.833,165.5 175.167,165.5 175.5,165.5C 175.167,168.167 174.833,168.167 174.5,165.5 Z"/>
    </g>
    <g transform="matrix(0.686709, 0, 0, 0.708841, 46.250534, 56.920918)" style="">
      <path style="opacity:0.999" fill="#ff9b21" d="M 18.5,161.5 C 37.8918,163.498 57.3918,166.164 77,169.5C 77.3333,169.167 77.6667,168.833 78,168.5C 79.5675,170.168 81.2342,170.502 83,169.5C 86.9353,170.283 90.9353,171.283 95,172.5C 98.2709,172.449 101.438,172.115 104.5,171.5C 106.485,174.798 108.485,178.131 110.5,181.5C 108.753,181.593 106.919,181.926 105,182.5C 104.25,181.874 103.416,181.374 102.5,181C 92.2092,179.781 82.2092,178.281 72.5,176.5C 70.1363,176.436 67.803,176.769 65.5,177.5C 63.5,177.167 61.5,176.833 59.5,176.5C 45.7648,171.926 31.7648,167.926 17.5,164.5C 16.2848,163.221 16.6182,162.221 18.5,161.5 Z"/>
    </g>
    <g transform="matrix(0.686709, 0, 0, 0.708841, 46.250534, 56.920918)" style="">
      <path style="opacity:0.999" fill="#fedb3f" d="M 146.5,179.5 C 136.734,184.049 126.734,188.049 116.5,191.5C 114.5,188.167 112.5,184.833 110.5,181.5C 108.485,178.131 106.485,174.798 104.5,171.5C 102.58,168.661 100.913,165.661 99.5,162.5C 97.4042,159.738 95.7375,156.738 94.5,153.5C 94.4346,153.062 94.6012,152.728 95,152.5C 105.049,161.11 115.883,168.61 127.5,175C 134.032,175.723 140.366,177.223 146.5,179.5 Z"/>
    </g>
    <g transform="matrix(0.686709, 0, 0, 0.708841, 46.250534, 56.920918)" style="">
      <path style="opacity:0.004" fill="#eb4afe" d="M 173.5,173.5 C 173.34,171.801 173.506,170.134 174,168.5C 174.78,170.387 174.613,172.054 173.5,173.5 Z"/>
    </g>
    <g transform="matrix(0.686709, 0, 0, 0.708841, 46.250534, 56.920918)" style="">
      <path style="opacity:0.999" fill="#feaa15" d="M 17.5,164.5 C 31.7648,167.926 45.7648,171.926 59.5,176.5C 58.7611,176.369 58.0944,176.536 57.5,177C 58.5,177.333 59.5,177.667 60.5,178C 55.7523,180.767 52.919,184.934 52,190.5C 49.614,193.078 47.4473,195.744 45.5,198.5C 39.5,191.5 33.5,184.5 27.5,177.5C 24.1426,173.148 20.8093,168.815 17.5,164.5 Z"/>
    </g>
    <g transform="matrix(0.686709, 0, 0, 0.708841, 46.250534, 56.920918)" style="">
      <path style="opacity:0.999" fill="#feb61f" d="M 171.5,169.5 C 169.538,175.733 167.204,181.733 164.5,187.5C 163.778,187.082 163.278,186.416 163,185.5C 159.011,191.482 154.677,197.148 150,202.5C 149.138,204.087 148.471,205.754 148,207.5C 145.404,209.282 142.904,211.949 140.5,215.5C 135.001,217.283 129.334,217.95 123.5,217.5C 122.662,217.158 122.328,216.492 122.5,215.5C 123.15,215.804 123.817,216.137 124.5,216.5C 132.385,206.202 140.052,196.368 147.5,187C 147.167,186.667 146.833,186.333 146.5,186C 149.091,183.643 150.758,180.809 151.5,177.5C 157.704,173.872 164.371,171.205 171.5,169.5 Z"/>
    </g>
    <g transform="matrix(0.686709, 0, 0, 0.708841, 46.250534, 56.920918)" style="">
      <path style="opacity:0.016" fill="#e24000" d="M 172.5,173.5 C 172.833,173.5 173.167,173.5 173.5,173.5C 173.795,175.735 173.461,177.735 172.5,179.5C 172.5,177.5 172.5,175.5 172.5,173.5 Z"/>
    </g>
    <g transform="matrix(0.686709, 0, 0, 0.708841, 46.250534, 56.920918)" style="">
      <path style="opacity:0.012" fill="#ee68ff" d="M 4.5,177.5 C 5.60093,176.402 6.93426,176.235 8.5,177C 7.20677,177.49 5.87344,177.657 4.5,177.5 Z"/>
    </g>
    <g transform="matrix(0.686709, 0, 0, 0.708841, 46.250534, 56.920918)" style="">
      <path style="opacity:0.998" fill="#fa730d" d="M 22.5,130.5 C 23.2807,138.703 23.614,147.036 23.5,155.5C 21.8333,157.5 20.1667,159.5 18.5,161.5C 16.6182,162.221 16.2848,163.221 17.5,164.5C 20.8093,168.815 24.1426,173.148 27.5,177.5C 27.5,177.833 27.5,178.167 27.5,178.5C 26.0937,178.973 25.427,179.973 25.5,181.5C 24.8333,181.5 24.5,181.833 24.5,182.5C 23.6618,182.842 23.3284,183.508 23.5,184.5C 22.8333,184.5 22.5,184.833 22.5,185.5C 19.3249,184.656 16.1582,182.989 13,180.5C 11.2932,182.909 10.4598,185.575 10.5,188.5C 8.4832,187.471 6.4832,186.471 4.5,185.5C 3.03508,184.263 1.36841,183.263 -0.5,182.5C -0.5,181.833 -0.5,181.167 -0.5,180.5C 0.669736,178.721 2.3364,177.721 4.5,177.5C 6.60838,178.775 8.94171,179.275 11.5,179C 10.8333,178.667 10.1667,178.333 9.5,178C 10.2266,176.601 10.7266,175.101 11,173.5C 11.3333,174.833 11.6667,176.167 12,177.5C 15.5671,161.829 19.0671,146.162 22.5,130.5 Z"/>
    </g>
    <g transform="matrix(0.686709, 0, 0, 0.708841, 46.250534, 56.920918)" style="">
      <path style="opacity:0.008" fill="#fe8000" d="M -0.5,177.5 C 0.833333,178.167 0.833333,178.167 -0.5,177.5 Z"/>
    </g>
    <g transform="matrix(0.686709, 0, 0, 0.708841, 46.250534, 56.920918)" style="">
      <path style="opacity:0.999" fill="#ffb21a" d="M 59.5,176.5 C 61.5,176.833 63.5,177.167 65.5,177.5C 69.3071,178.693 72.9738,180.026 76.5,181.5C 76.8807,182.931 77.8807,183.764 79.5,184C 77.9452,185.646 76.2785,185.979 74.5,185C 74.9574,185.414 75.2907,185.914 75.5,186.5C 73.8149,188.017 72.3149,189.684 71,191.5C 70.6667,191.167 70.3333,190.833 70,190.5C 68.3977,192.307 67.0644,194.307 66,196.5C 65.6667,196.167 65.3333,195.833 65,195.5C 64.6667,196.833 64.3333,198.167 64,199.5C 60.6617,202.339 57.495,205.339 54.5,208.5C 51.5095,205.208 48.5095,201.874 45.5,198.5C 47.4473,195.744 49.614,193.078 52,190.5C 52.919,184.934 55.7523,180.767 60.5,178C 59.5,177.667 58.5,177.333 57.5,177C 58.0944,176.536 58.7611,176.369 59.5,176.5 Z"/>
    </g>
    <g transform="matrix(0.686709, 0, 0, 0.708841, 46.250534, 56.920918)" style="">
      <path style="opacity:0.958" fill="#fd8f1b" d="M 65.5,177.5 C 67.803,176.769 70.1363,176.436 72.5,176.5C 82.2092,178.281 92.2092,179.781 102.5,181C 103.416,181.374 104.25,181.874 105,182.5C 106.919,181.926 108.753,181.593 110.5,181.5C 112.5,184.833 114.5,188.167 116.5,191.5C 119.38,199.219 121.38,207.219 122.5,215.5C 122.328,216.492 122.662,217.158 123.5,217.5C 133.319,218.494 143.319,218.827 153.5,218.5C 153.5,219.167 153.5,219.833 153.5,220.5C 142.986,220.828 132.653,220.494 122.5,219.5C 122.5,218.833 122.167,218.5 121.5,218.5C 121.672,217.508 121.338,216.842 120.5,216.5C 120.672,215.508 120.338,214.842 119.5,214.5C 119.008,212.181 118.008,210.181 116.5,208.5C 116.672,207.508 116.338,206.842 115.5,206.5C 115.672,205.508 115.338,204.842 114.5,204.5C 114.672,203.508 114.338,202.842 113.5,202.5C 113.672,201.508 113.338,200.842 112.5,200.5C 112.737,199.209 112.404,198.209 111.5,197.5C 111.672,196.508 111.338,195.842 110.5,195.5C 110.672,194.508 110.338,193.842 109.5,193.5C 109.672,192.508 109.338,191.842 108.5,191.5C 105.916,189.528 102.916,188.528 99.5,188.5C 97.0209,187.205 94.3542,186.205 91.5,185.5C 86.702,183.716 81.702,182.383 76.5,181.5C 72.9738,180.026 69.3071,178.693 65.5,177.5 Z"/>
    </g>
    <g transform="matrix(0.686709, 0, 0, 0.708841, 46.250534, 56.920918)" style="">
      <path style="opacity:1" fill="#ffc228" d="M 151.5,177.5 C 150.758,180.809 149.091,183.643 146.5,186C 146.833,186.333 147.167,186.667 147.5,187C 140.052,196.368 132.385,206.202 124.5,216.5C 123.817,216.137 123.15,215.804 122.5,215.5C 121.38,207.219 119.38,199.219 116.5,191.5C 126.734,188.049 136.734,184.049 146.5,179.5C 148.05,178.559 149.716,177.893 151.5,177.5 Z"/>
    </g>
    <g transform="matrix(0.686709, 0, 0, 0.708841, 46.250534, 56.920918)" style="">
      <path style="opacity:0.016" fill="#e24000" d="M 171.5,179.5 C 171.833,179.5 172.167,179.5 172.5,179.5C 172.795,181.735 172.461,183.735 171.5,185.5C 171.5,183.5 171.5,181.5 171.5,179.5 Z"/>
    </g>
    <g transform="matrix(0.686709, 0, 0, 0.708841, 46.250534, 56.920918)" style="">
      <path style="opacity:0.999" fill="#feb61d" d="M 76.5,181.5 C 81.702,182.383 86.702,183.716 91.5,185.5C 91.5,186.167 91.5,186.833 91.5,187.5C 91.1667,187.5 90.8333,187.5 90.5,187.5C 82.9354,196.949 75.602,206.615 68.5,216.5C 68.1667,217.167 67.8333,217.833 67.5,218.5C 65.5,218.5 63.5,218.5 61.5,218.5C 59.1919,215.185 56.8586,211.851 54.5,208.5C 57.495,205.339 60.6617,202.339 64,199.5C 64.3333,198.167 64.6667,196.833 65,195.5C 65.3333,195.833 65.6667,196.167 66,196.5C 67.0644,194.307 68.3977,192.307 70,190.5C 70.3333,190.833 70.6667,191.167 71,191.5C 72.3149,189.684 73.8149,188.017 75.5,186.5C 75.2907,185.914 74.9574,185.414 74.5,185C 76.2785,185.979 77.9452,185.646 79.5,184C 77.8807,183.764 76.8807,182.931 76.5,181.5 Z"/>
    </g>
    <g transform="matrix(0.686709, 0, 0, 0.708841, 46.250534, 56.920918)" style="">
      <path style="opacity:0.971" fill="#fd960d" d="M 22.5,185.5 C 22.5,185.833 22.5,186.167 22.5,186.5C 21.8333,186.5 21.5,186.833 21.5,187.5C 20.6618,187.842 20.3284,188.508 20.5,189.5C 19.8333,189.5 19.5,189.833 19.5,190.5C 18.6618,190.842 18.3284,191.508 18.5,192.5C 15.8599,191.18 13.1932,189.847 10.5,188.5C 10.4598,185.575 11.2932,182.909 13,180.5C 16.1582,182.989 19.3249,184.656 22.5,185.5 Z"/>
    </g>
    <g transform="matrix(0.686709, 0, 0, 0.708841, 46.250534, 56.920918)" style="">
      <path style="opacity:0.012" fill="#f87efd" d="M 25.5,181.5 C 26.1667,181.833 26.8333,182.167 27.5,182.5C 27.5432,186.893 27.0432,187.226 26,183.5C 25.6174,184.056 25.1174,184.389 24.5,184.5C 24.5,183.833 24.5,183.167 24.5,182.5C 25.1667,182.5 25.5,182.167 25.5,181.5 Z"/>
    </g>
    <g transform="matrix(0.686709, 0, 0, 0.708841, 46.250534, 56.920918)" style="">
      <path style="opacity:0.008" fill="#ff7200" d="M 4.5,185.5 C 4.5,185.833 4.5,186.167 4.5,186.5C 1.83333,186.167 1.83333,185.833 4.5,185.5 Z"/>
    </g>
    <g transform="matrix(0.686709, 0, 0, 0.708841, 46.250534, 56.920918)" style="">
      <path style="opacity:0.004" fill="#ffd6fe" d="M 23.5,184.5 C 23.8333,184.5 24.1667,184.5 24.5,184.5C 24.6716,185.492 24.3382,186.158 23.5,186.5C 23.5,185.833 23.5,185.167 23.5,184.5 Z"/>
    </g>
    <g transform="matrix(0.686709, 0, 0, 0.708841, 46.250534, 56.920918)" style="">
      <path style="opacity:0.012" fill="#feaa00" d="M 4.5,186.5 C 5.83333,187.167 5.83333,187.167 4.5,186.5 Z"/>
    </g>
    <g transform="matrix(0.686709, 0, 0, 0.708841, 46.250534, 56.920918)" style="">
      <path style="opacity:0.012" fill="#feaa00" d="M 22.5,186.5 C 22.8333,186.5 23.1667,186.5 23.5,186.5C 23.3147,187.17 22.9813,187.17 22.5,186.5 Z"/>
    </g>
    <g transform="matrix(0.686709, 0, 0, 0.708841, 46.250534, 56.920918)" style="">
      <path style="opacity:0.016" fill="#bc3b05" d="M 170.5,185.5 C 170.833,185.5 171.167,185.5 171.5,185.5C 171.795,187.735 171.461,189.735 170.5,191.5C 170.5,189.5 170.5,187.5 170.5,185.5 Z"/>
    </g>
    <g transform="matrix(0.686709, 0, 0, 0.708841, 46.250534, 56.920918)" style="">
      <path style="opacity:0.008" fill="#ff8e00" d="M 21.5,187.5 C 21.8333,187.5 22.1667,187.5 22.5,187.5C 22.6716,188.492 22.3382,189.158 21.5,189.5C 21.5,188.833 21.5,188.167 21.5,187.5 Z"/>
    </g>
    <g transform="matrix(0.686709, 0, 0, 0.708841, 46.250534, 56.920918)" style="">
      <path style="opacity:0.012" fill="#ff7afe" d="M 91.5,187.5 C 92.8734,187.343 94.2068,187.51 95.5,188C 93.867,188.48 92.5336,189.313 91.5,190.5C 91.5,189.5 91.5,188.5 91.5,187.5 Z"/>
    </g>
    <g transform="matrix(0.686709, 0, 0, 0.708841, 46.250534, 56.920918)" style="">
      <path style="opacity:0.01" fill="#fe8000" d="M 99.5,188.5 C 99.5,188.833 99.5,189.167 99.5,189.5C 95.5,189.167 95.5,188.833 99.5,188.5 Z"/>
    </g>
    <g transform="matrix(0.686709, 0, 0, 0.708841, 46.250534, 56.920918)" style="">
      <path style="opacity:0.016" fill="#fe8000" d="M 20.5,189.5 C 20.8333,189.5 21.1667,189.5 21.5,189.5C 21.3147,190.17 20.9813,190.17 20.5,189.5 Z"/>
    </g>
    <g transform="matrix(0.686709, 0, 0, 0.708841, 46.250534, 56.920918)" style="">
      <path style="opacity:0.012" fill="#ff84fe" d="M 99.5,189.5 C 100.552,189.351 101.552,189.517 102.5,190C 101.251,190.74 100.251,190.573 99.5,189.5 Z"/>
    </g>
    <g transform="matrix(0.686709, 0, 0, 0.708841, 46.250534, 56.920918)" style="">
      <path style="opacity:0.999" fill="#fea916" d="M 164.5,187.5 C 161.362,196.914 158.029,206.247 154.5,215.5C 154.5,216.167 154.5,216.833 154.5,217.5C 154.5,218.167 154.167,218.5 153.5,218.5C 143.319,218.827 133.319,218.494 123.5,217.5C 129.334,217.95 135.001,217.283 140.5,215.5C 142.904,211.949 145.404,209.282 148,207.5C 148.471,205.754 149.138,204.087 150,202.5C 154.677,197.148 159.011,191.482 163,185.5C 163.278,186.416 163.778,187.082 164.5,187.5 Z"/>
    </g>
    <g transform="matrix(0.686709, 0, 0, 0.708841, 46.250534, 56.920918)" style="">
      <path style="opacity:0.004" fill="#feff00" d="M 19.5,190.5 C 19.8333,190.5 20.1667,190.5 20.5,190.5C 20.6716,191.492 20.3382,192.158 19.5,192.5C 19.5,191.833 19.5,191.167 19.5,190.5 Z"/>
    </g>
    <g transform="matrix(0.686709, 0, 0, 0.708841, 46.250534, 56.920918)" style="">
      <path style="opacity:0.012" fill="#ff7aff" d="M 29.5,190.5 C 29.5,191.833 29.5,193.167 29.5,194.5C 28.1667,193.167 28.1667,191.833 29.5,190.5 Z"/>
    </g>
    <g transform="matrix(0.686709, 0, 0, 0.708841, 46.250534, 56.920918)" style="">
      <path style="opacity:0.996" fill="#fd8316" d="M 27.5,177.5 C 33.5,184.5 39.5,191.5 45.5,198.5C 48.5095,201.874 51.5095,205.208 54.5,208.5C 56.8586,211.851 59.1919,215.185 61.5,218.5C 56.3392,218.529 51.3392,217.695 46.5,216C 42.7198,210.556 38.3865,205.723 33.5,201.5C 33.1667,201.5 32.8333,201.5 32.5,201.5C 32.2576,197.521 31.2576,193.854 29.5,190.5C 29.4349,187.572 28.7682,184.905 27.5,182.5C 27.5,181.167 27.5,179.833 27.5,178.5C 27.5,178.167 27.5,177.833 27.5,177.5 Z"/>
    </g>
    <g transform="matrix(0.686709, 0, 0, 0.708841, 46.250534, 56.920918)" style="">
      <path style="opacity:0.008" fill="#941b02" d="M 90.5,190.5 C 90.8333,190.5 91.1667,190.5 91.5,190.5C 91.6716,191.492 91.3382,192.158 90.5,192.5C 90.5,191.833 90.5,191.167 90.5,190.5 Z"/>
    </g>
    <g transform="matrix(0.686709, 0, 0, 0.708841, 46.250534, 56.920918)" style="">
      <path style="opacity:0.02" fill="#ffa521" d="M 108.5,191.5 C 108.5,192.167 108.5,192.833 108.5,193.5C 106.067,192.452 106.067,191.786 108.5,191.5 Z"/>
    </g>
    <g transform="matrix(0.686709, 0, 0, 0.708841, 46.250534, 56.920918)" style="">
      <path style="opacity:0.004" fill="#feff00" d="M 18.5,192.5 C 18.8333,192.5 19.1667,192.5 19.5,192.5C 19.3147,193.17 18.9813,193.17 18.5,192.5 Z"/>
    </g>
    <g transform="matrix(0.686709, 0, 0, 0.708841, 46.250534, 56.920918)" style="">
      <path style="opacity:0.016" fill="#f54f00" d="M 169.5,191.5 C 169.833,191.5 170.167,191.5 170.5,191.5C 170.795,193.735 170.461,195.735 169.5,197.5C 169.5,195.5 169.5,193.5 169.5,191.5 Z"/>
    </g>
    <g transform="matrix(0.686709, 0, 0, 0.708841, 46.250534, 56.920918)" style="">
      <path style="opacity:0.004" fill="#ffc1f7" d="M 18.5,193.5 C 18.1034,194.525 17.4368,194.692 16.5,194C 17.0944,193.536 17.7611,193.369 18.5,193.5 Z"/>
    </g>
    <g transform="matrix(0.686709, 0, 0, 0.708841, 46.250534, 56.920918)" style="">
      <path style="opacity:0.012" fill="#c55600" d="M 89.5,192.5 C 89.8333,192.5 90.1667,192.5 90.5,192.5C 90.1667,195.167 89.8333,195.167 89.5,192.5 Z"/>
    </g>
    <g transform="matrix(0.686709, 0, 0, 0.708841, 46.250534, 56.920918)" style="">
      <path style="opacity:0.012" fill="#ffbf00" d="M 29.5,194.5 C 30.5735,195.251 30.7401,196.251 30,197.5C 29.5172,196.552 29.3505,195.552 29.5,194.5 Z"/>
    </g>
    <g transform="matrix(0.686709, 0, 0, 0.708841, 46.250534, 56.920918)" style="">
      <path style="opacity:0.012" fill="#ff95fc" d="M 108.5,193.5 C 108.833,193.5 109.167,193.5 109.5,193.5C 109.5,194.167 109.5,194.833 109.5,195.5C 108.662,195.158 108.328,194.492 108.5,193.5 Z"/>
    </g>
    <g transform="matrix(0.686709, 0, 0, 0.708841, 46.250534, 56.920918)" style="">
      <path style="opacity:0.004" fill="#e92700" d="M 88.5,197.5 C 88.369,196.761 88.5357,196.094 89,195.5C 89.6917,196.437 89.525,197.103 88.5,197.5 Z"/>
    </g>
    <g transform="matrix(0.686709, 0, 0, 0.708841, 46.250534, 56.920918)" style="">
      <path style="opacity:0.012" fill="#ff95fc" d="M 109.5,195.5 C 109.833,195.5 110.167,195.5 110.5,195.5C 110.5,196.167 110.5,196.833 110.5,197.5C 109.662,197.158 109.328,196.492 109.5,195.5 Z"/>
    </g>
    <g transform="matrix(0.686709, 0, 0, 0.708841, 46.250534, 56.920918)" style="">
      <path style="opacity:0.948" fill="#e54e00" d="M 171.5,169.5 C 171.833,169.5 172.167,169.5 172.5,169.5C 172.5,170.833 172.5,172.167 172.5,173.5C 171.539,175.265 171.205,177.265 171.5,179.5C 170.539,181.265 170.205,183.265 170.5,185.5C 169.539,187.265 169.205,189.265 169.5,191.5C 168.539,193.265 168.205,195.265 168.5,197.5C 167.539,199.265 167.205,201.265 167.5,203.5C 166.097,206.909 165.43,210.575 165.5,214.5C 161.936,215.423 158.269,215.756 154.5,215.5C 158.029,206.247 161.362,196.914 164.5,187.5C 167.204,181.733 169.538,175.733 171.5,169.5 Z"/>
    </g>
    <g transform="matrix(0.686709, 0, 0, 0.708841, 46.250534, 56.920918)" style="">
      <path style="opacity:0.008" fill="#ff7200" d="M 87.5,197.5 C 87.8333,197.5 88.1667,197.5 88.5,197.5C 88.6716,198.492 88.3382,199.158 87.5,199.5C 87.5,198.833 87.5,198.167 87.5,197.5 Z"/>
    </g>
    <g transform="matrix(0.686709, 0, 0, 0.708841, 46.250534, 56.920918)" style="">
      <path style="opacity:0.012" fill="#ff71fd" d="M 110.5,197.5 C 110.833,197.5 111.167,197.5 111.5,197.5C 111.5,198.5 111.5,199.5 111.5,200.5C 110.596,199.791 110.263,198.791 110.5,197.5 Z"/>
    </g>
    <g transform="matrix(0.686709, 0, 0, 0.708841, 46.250534, 56.920918)" style="">
      <path style="opacity:0.016" fill="#f54f00" d="M 168.5,197.5 C 168.833,197.5 169.167,197.5 169.5,197.5C 169.795,199.735 169.461,201.735 168.5,203.5C 168.5,201.5 168.5,199.5 168.5,197.5 Z"/>
    </g>
    <g transform="matrix(0.686709, 0, 0, 0.708841, 46.250534, 56.920918)" style="">
      <path style="opacity:0.012" fill="#ff5600" d="M 31.5,201.5 C 30.4265,200.749 30.2599,199.749 31,198.5C 31.4828,199.448 31.6495,200.448 31.5,201.5 Z"/>
    </g>
    <g transform="matrix(0.686709, 0, 0, 0.708841, 46.250534, 56.920918)" style="">
      <path style="opacity:0.012" fill="#ba4c0c" d="M 86.5,199.5 C 86.8333,199.5 87.1667,199.5 87.5,199.5C 87.7373,200.791 87.404,201.791 86.5,202.5C 86.5,201.5 86.5,200.5 86.5,199.5 Z"/>
    </g>
    <g transform="matrix(0.686709, 0, 0, 0.708841, 46.250534, 56.920918)" style="">
      <path style="opacity:0.956" fill="#f96b0b" d="M 33.5,201.5 C 38.3865,205.723 42.7198,210.556 46.5,216C 51.3392,217.695 56.3392,218.529 61.5,218.5C 63.5,218.5 65.5,218.5 67.5,218.5C 67.5,218.833 67.5,219.167 67.5,219.5C 66.8333,219.5 66.5,219.833 66.5,220.5C 56.6522,220.827 46.9856,220.494 37.5,219.5C 37.7373,218.209 37.404,217.209 36.5,216.5C 35.3433,211.538 34.3433,206.538 33.5,201.5 Z"/>
    </g>
    <g transform="matrix(0.686709, 0, 0, 0.708841, 46.250534, 56.920918)" style="">
      <path style="opacity:0.004" fill="#ff46ff" d="M 111.5,200.5 C 111.833,200.5 112.167,200.5 112.5,200.5C 112.5,201.167 112.5,201.833 112.5,202.5C 111.662,202.158 111.328,201.492 111.5,200.5 Z"/>
    </g>
    <g transform="matrix(0.686709, 0, 0, 0.708841, 46.250534, 56.920918)" style="">
      <path style="opacity:0.012" fill="#ff8dfd" d="M 31.5,201.5 C 31.8333,201.5 32.1667,201.5 32.5,201.5C 32.1667,206.833 31.8333,206.833 31.5,201.5 Z"/>
    </g>
    <g transform="matrix(0.686709, 0, 0, 0.708841, 46.250534, 56.920918)" style="">
      <path style="opacity:0.004" fill="#e92700" d="M 85.5,202.5 C 85.8333,202.5 86.1667,202.5 86.5,202.5C 86.6716,203.492 86.3382,204.158 85.5,204.5C 85.5,203.833 85.5,203.167 85.5,202.5 Z"/>
    </g>
    <g transform="matrix(0.686709, 0, 0, 0.708841, 46.250534, 56.920918)" style="">
      <path style="opacity:0.004" fill="#ff46ff" d="M 112.5,202.5 C 112.833,202.5 113.167,202.5 113.5,202.5C 113.5,203.167 113.5,203.833 113.5,204.5C 112.662,204.158 112.328,203.492 112.5,202.5 Z"/>
    </g>
    <g transform="matrix(0.686709, 0, 0, 0.708841, 46.250534, 56.920918)" style="">
      <path style="opacity:0.016" fill="#ff52ff" d="M 167.5,203.5 C 167.833,203.5 168.167,203.5 168.5,203.5C 168.795,205.735 168.461,207.735 167.5,209.5C 167.5,207.5 167.5,205.5 167.5,203.5 Z"/>
    </g>
    <g transform="matrix(0.686709, 0, 0, 0.708841, 46.250534, 56.920918)" style="">
      <path style="opacity:0.012" fill="#c55600" d="M 84.5,204.5 C 84.8333,204.5 85.1667,204.5 85.5,204.5C 85.6716,205.492 85.3382,206.158 84.5,206.5C 84.5,205.833 84.5,205.167 84.5,204.5 Z"/>
    </g>
    <g transform="matrix(0.686709, 0, 0, 0.708841, 46.250534, 56.920918)" style="">
      <path style="opacity:0.004" fill="#ffd6fe" d="M 113.5,204.5 C 113.833,204.5 114.167,204.5 114.5,204.5C 114.5,205.167 114.5,205.833 114.5,206.5C 113.662,206.158 113.328,205.492 113.5,204.5 Z"/>
    </g>
    <g transform="matrix(0.686709, 0, 0, 0.708841, 46.250534, 56.920918)" style="">
      <path style="opacity:0.016" fill="#de3000" d="M 83.5,206.5 C 83.8333,206.5 84.1667,206.5 84.5,206.5C 84.7373,207.791 84.404,208.791 83.5,209.5C 83.5,208.5 83.5,207.5 83.5,206.5 Z"/>
    </g>
    <g transform="matrix(0.686709, 0, 0, 0.708841, 46.250534, 56.920918)" style="">
      <path style="opacity:0.004" fill="#ffd6fe" d="M 114.5,206.5 C 114.833,206.5 115.167,206.5 115.5,206.5C 115.5,207.167 115.5,207.833 115.5,208.5C 114.662,208.158 114.328,207.492 114.5,206.5 Z"/>
    </g>
    <g transform="matrix(0.686709, 0, 0, 0.708841, 46.250534, 56.920918)" style="">
      <path style="opacity:0.998" fill="#e64b00" d="M 90.5,187.5 C 90.5,188.5 90.5,189.5 90.5,190.5C 89.6618,190.842 89.3284,191.508 89.5,192.5C 88.0687,193.78 87.4021,195.447 87.5,197.5C 86.6618,197.842 86.3284,198.508 86.5,199.5C 85.596,200.209 85.2627,201.209 85.5,202.5C 84.6618,202.842 84.3284,203.508 84.5,204.5C 83.6618,204.842 83.3284,205.508 83.5,206.5C 82.596,207.209 82.2627,208.209 82.5,209.5C 81.6618,209.842 81.3284,210.508 81.5,211.5C 80.596,212.209 80.2627,213.209 80.5,214.5C 79.8333,214.5 79.5,214.833 79.5,215.5C 75.9359,216.423 72.2693,216.756 68.5,216.5C 75.602,206.615 82.9354,196.949 90.5,187.5 Z"/>
    </g>
    <g transform="matrix(0.686709, 0, 0, 0.708841, 46.250534, 56.920918)" style="">
      <path style="opacity:0.004" fill="#ffd6fe" d="M 115.5,208.5 C 115.833,208.5 116.167,208.5 116.5,208.5C 116.167,211.167 115.833,211.167 115.5,208.5 Z"/>
    </g>
    <g transform="matrix(0.686709, 0, 0, 0.708841, 46.250534, 56.920918)" style="">
      <path style="opacity:0.008" fill="#e96a00" d="M 82.5,209.5 C 82.8333,209.5 83.1667,209.5 83.5,209.5C 83.6716,210.492 83.3382,211.158 82.5,211.5C 82.5,210.833 82.5,210.167 82.5,209.5 Z"/>
    </g>
    <g transform="matrix(0.686709, 0, 0, 0.708841, 46.250534, 56.920918)" style="">
      <path style="opacity:0.016" fill="#ff5700" d="M 167.5,209.5 C 167.657,210.873 167.49,212.207 167,213.5C 166.235,211.934 166.402,210.601 167.5,209.5 Z"/>
    </g>
    <g transform="matrix(0.686709, 0, 0, 0.708841, 46.250534, 56.920918)" style="">
      <path style="opacity:0.012" fill="#ba4c0c" d="M 81.5,211.5 C 81.8333,211.5 82.1667,211.5 82.5,211.5C 82.7373,212.791 82.404,213.791 81.5,214.5C 81.5,213.5 81.5,212.5 81.5,211.5 Z"/>
    </g>
    <g transform="matrix(0.686709, 0, 0, 0.708841, 46.250534, 56.920918)" style="">
      <path style="opacity:0.008" fill="#ff8e00" d="M 119.5,214.5 C 119.5,215.167 119.5,215.833 119.5,216.5C 118.167,215.833 118.167,215.167 119.5,214.5 Z"/>
    </g>
    <g transform="matrix(0.686709, 0, 0, 0.708841, 46.250534, 56.920918)" style="">
      <path style="opacity:0.693" fill="#b32e00" d="M 80.5,214.5 C 80.8333,214.5 81.1667,214.5 81.5,214.5C 81.67,215.822 81.3366,216.989 80.5,218C 76.1794,218.499 71.8461,218.666 67.5,218.5C 67.8333,217.833 68.1667,217.167 68.5,216.5C 72.2693,216.756 75.9359,216.423 79.5,215.5C 80.1667,215.5 80.5,215.167 80.5,214.5 Z"/>
    </g>
    <g transform="matrix(0.686709, 0, 0, 0.708841, 46.250534, 56.920918)" style="">
      <path style="opacity:0.008" fill="#ff8e00" d="M 119.5,216.5 C 119.833,216.5 120.167,216.5 120.5,216.5C 120.5,217.167 120.5,217.833 120.5,218.5C 119.662,218.158 119.328,217.492 119.5,216.5 Z"/>
    </g>
    <g transform="matrix(0.686709, 0, 0, 0.708841, 46.250534, 56.920918)" style="">
      <path style="opacity:0.004" fill="#5b180b" d="M 69.5,219.5 C 72.8499,219.335 76.1832,219.502 79.5,220C 76.2423,220.212 73.0757,220.712 70,221.5C 69.5357,220.906 69.369,220.239 69.5,219.5 Z"/>
    </g>
    <g transform="matrix(0.686709, 0, 0, 0.708841, 46.250534, 56.920918)" style="">
      <path style="opacity:0.965" fill="#b42e01" d="M 165.5,214.5 C 167.549,214.706 167.883,215.539 166.5,217C 163.167,217.333 159.833,217.667 156.5,218C 167.146,218.829 167.146,219.329 156.5,219.5C 156.5,220.5 156.5,221.5 156.5,222.5C 144.167,223.833 131.833,223.833 119.5,222.5C 119.433,221.041 119.766,219.708 120.5,218.5C 120.833,218.5 121.167,218.5 121.5,218.5C 122.167,218.5 122.5,218.833 122.5,219.5C 132.653,220.494 142.986,220.828 153.5,220.5C 155.382,219.779 155.715,218.779 154.5,217.5C 154.5,216.833 154.5,216.167 154.5,215.5C 158.269,215.756 161.936,215.423 165.5,214.5 Z"/>
    </g>
    <g transform="matrix(0.686709, 0, 0, 0.708841, 46.250534, 56.920918)" style="">
      <path style="opacity:0.517" fill="#ba3400" d="M 36.5,216.5 C 36.2627,217.791 36.596,218.791 37.5,219.5C 46.9856,220.494 56.6522,220.827 66.5,220.5C 67.1667,220.5 67.5,220.167 67.5,219.5C 68.404,220.209 68.7373,221.209 68.5,222.5C 57.0831,224.162 45.7497,223.829 34.5,221.5C 35.0276,219.664 35.6942,217.997 36.5,216.5 Z"/>
    </g>
    <g transform="matrix(0.686709, 0, 0, 0.708841, 46.250534, 56.920918)" style="">
      <path style="opacity:0.004" fill="#391307" d="M 35.5,224.5 C 36.6009,223.402 37.9343,223.235 39.5,224C 38.2068,224.49 36.8734,224.657 35.5,224.5 Z"/>
    </g>
    <g transform="matrix(0.686709, 0, 0, 0.708841, 46.250534, 56.920918)" style="">
      <path style="opacity:0.004" fill="#341206" d="M 63.5,224.5 C 64.6009,223.402 65.9343,223.235 67.5,224C 66.2068,224.49 64.8734,224.657 63.5,224.5 Z"/>
    </g>
    <g transform="matrix(0.686709, 0, 0, 0.708841, 46.250534, 56.920918)" style="">
      <path style="opacity:0.004" fill="#391307" d="M 120.5,224.5 C 121.601,223.402 122.934,223.235 124.5,224C 123.207,224.49 121.873,224.657 120.5,224.5 Z"/>
    </g>
    <g transform="matrix(0.686709, 0, 0, 0.708841, 46.250534, 56.920918)" style="">
      <path style="opacity:0.004" fill="#a41a0a" d="M 151.5,224.5 C 152.601,223.402 153.934,223.235 155.5,224C 154.207,224.49 152.873,224.657 151.5,224.5 Z"/>
    </g>
    <g transform="matrix(0.686709, 0, 0, 0.708841, 46.250534, 56.920918)" style="">
      <path style="opacity:0.004" fill="#5b180b" d="M 41.5,225.5 C 47.987,224.346 54.6536,224.179 61.5,225C 54.8417,225.5 48.175,225.666 41.5,225.5 Z"/>
    </g>
    <g transform="matrix(0.686709, 0, 0, 0.708841, 46.250534, 56.920918)" style="">
      <path style="opacity:0.004" fill="#5f180b" d="M 126.5,225.5 C 133.989,224.344 141.655,224.178 149.5,225C 141.841,225.5 134.174,225.666 126.5,225.5 Z"/>
    </g>
  </g>
</svg>